<?xml version="1.0" encoding="utf-8"?>
<!-- Generator: Adobe Illustrator 21.0.0, SVG Export Plug-In . SVG Version: 6.00 Build 0)  -->
<svg version="1.1" id="Layer_1" xmlns="http://www.w3.org/2000/svg" xmlns:xlink="http://www.w3.org/1999/xlink" x="0px" y="0px"
	 viewBox="0 0 2000 2000" style="enable-background:new 0 0 2000 2000;" xml:space="preserve">
<style type="text/css">
	.st0{fill:#253E8E;}
</style>
<g>
	<path class="st0" d="M739.5,1108.7c-13.6-7.2-24.2-17.3-31.6-30.5c-7.4-13.2-11.1-28.3-11.1-45.5v-80.4c0-16.9,3.8-31.9,11.3-45
		c7.5-13,18-23.2,31.6-30.3c13.5-7.2,29.1-10.8,46.7-10.8c17.9,0,33.6,3.6,47.1,10.8c13.5,7.2,24,17.3,31.6,30.3
		c7.5,13.1,11.3,28,11.3,45v80.4c0,17.2-3.8,32.3-11.3,45.5c-7.5,13.2-18,23.3-31.6,30.5c-13.5,7.2-29.2,10.8-47.1,10.8
		C768.7,1119.4,753.1,1115.8,739.5,1108.7 M822,1070.4c8.9-9.2,13.4-21.3,13.4-36.3v-82.2c0-15.3-4.5-27.5-13.4-36.7
		c-8.9-9.2-20.8-13.8-35.6-13.8c-14.6,0-26.3,4.6-35.3,13.8c-8.9,9.2-13.4,21.4-13.4,36.7v82.2c0,15,4.5,27.2,13.4,36.3
		c8.9,9.2,20.7,13.8,35.3,13.8C801.2,1084.2,813.1,1079.6,822,1070.4"/>
	<path class="st0" d="M965.2,1112.4L901,873.6l-0.4-1.4c0-2.1,1.3-3.2,3.9-3.2h34.6c2.6,0,4.2,1.2,4.9,3.5l40.2,160.8
		c0.2,0.7,0.6,1.1,1.1,1.1c0.5,0,0.8-0.4,1.1-1.1l38.4-160.8c0.7-2.3,2.2-3.5,4.6-3.5h33.9c2.6,0,4.2,1.2,4.9,3.5l40.9,161.2
		c0.2,0.7,0.6,1.1,1.1,1.1c0.5,0,0.8-0.4,1.1-1.1l39.5-161.2c0.7-2.3,2.4-3.5,4.9-3.5h32.8c3.3,0,4.6,1.5,3.9,4.6l-61,238.7
		c-0.7,2.4-2.3,3.5-4.9,3.5h-32.8c-2.6,0-4.2-1.2-4.9-3.5l-41.3-168.2c-0.2-0.7-0.6-1.1-1.1-1.2c-0.5-0.1-0.8,0.3-1.1,1.2
		l-39.5,168.2c-0.7,2.4-2.2,3.5-4.6,3.5h-31C967.5,1115.9,965.9,1114.7,965.2,1112.4"/>
	<path class="st0" d="M1341.1,1112.4l-11.6-37.7c-0.5-0.9-1.1-1.4-1.8-1.4h-93.1c-0.7,0-1.3,0.5-1.8,1.4l-11.6,37.7
		c-0.7,2.4-2.2,3.5-4.6,3.5h-35.3c-1.4,0-2.5-0.4-3.2-1.2c-0.7-0.8-0.8-2.1-0.3-3.7l76.5-238.4c0.7-2.3,2.2-3.5,4.6-3.5h44.1
		c2.4,0,3.9,1.2,4.6,3.5l76.9,238.4c0.2,0.5,0.3,1.1,0.3,1.8c0,2.1-1.3,3.2-3.9,3.2h-35.3
		C1343.3,1115.9,1341.8,1114.7,1341.1,1112.4 M1245.1,1041.1h71.6c1.4,0,1.9-0.7,1.4-2.1l-36.3-118.1c-0.2-0.9-0.6-1.4-1.1-1.4
		c-0.5,0-0.8,0.5-1.1,1.4l-36,118.1C1243.5,1040.4,1244,1041.1,1245.1,1041.1"/>
	<path class="st0" d="M1438.4,1109.9c-13.6-5.9-24.2-14.1-31.6-24.7c-7.4-10.6-11.1-23-11.1-37.4v-8.8c0-1.2,0.4-2.2,1.2-3
		c0.8-0.8,1.8-1.2,3-1.2h31.4c1.2,0,2.2,0.4,3,1.2c0.8,0.8,1.2,1.8,1.2,3v6.7c0,10.8,4.8,19.8,14.5,27c9.6,7.2,22.8,10.8,39.5,10.8
		c14.3,0,25.2-3.1,32.4-9.2c7.3-6.1,10.9-14,10.9-23.6c0-6.6-2-12.2-6-16.7c-4-4.6-9.7-8.8-17.1-12.5c-7.4-3.8-18.5-8.5-33.3-14.1
		c-16.7-6.1-30.2-11.9-40.6-17.3c-10.3-5.4-19-12.7-25.9-22c-6.9-9.3-10.4-20.9-10.4-34.7c0-20.7,7.5-37,22.6-49
		c15-12,35.1-18,60.3-18c17.6,0,33.2,3.1,46.7,9.2c13.5,6.1,24,14.6,31.6,25.6c7.5,10.9,11.3,23.6,11.3,37.9v6c0,1.2-0.4,2.2-1.2,3
		c-0.8,0.8-1.8,1.2-3,1.2h-31.7c-1.2,0-2.2-0.4-3-1.2c-0.8-0.8-1.2-1.8-1.2-3V941c0-11-4.5-20.4-13.6-28
		c-9.1-7.6-21.6-11.5-37.6-11.5c-12.9,0-23,2.7-30.2,8.1c-7.2,5.4-10.7,13-10.7,22.9c0,7.1,1.9,12.8,5.6,17.3
		c3.8,4.5,9.4,8.5,16.9,12.2c7.5,3.6,19.2,8.3,34.9,13.9c16.7,6.3,30,12.1,40,17.3c10,5.2,18.6,12.4,25.7,21.7
		c7.2,9.3,10.8,20.9,10.8,34.7c0,21.2-7.8,38-23.5,50.4c-15.6,12.5-37,18.7-64,18.7C1468,1118.7,1452,1115.8,1438.4,1109.9"/>
	<path class="st0" d="M1753.3,877.9c11.3,6.1,20,14.8,26.3,25.9c6.2,11.2,9.3,24,9.3,38.6c0,14.3-3.2,27-9.5,38.1
		c-6.4,11.1-15.3,19.6-27,25.6c-11.6,6-25.1,9-40.4,9h-56.4c-1.2,0-1.8,0.6-1.8,1.8v94.9c0,1.2-0.4,2.2-1.2,3
		c-0.8,0.8-1.8,1.2-3,1.2h-32.4c-1.2,0-2.2-0.4-3-1.2c-0.8-0.8-1.2-1.8-1.2-3V872.9c0-1.2,0.4-2.2,1.2-3c0.8-0.8,1.8-1.2,3-1.2h97
		C1729,868.7,1742,871.8,1753.3,877.9 M1737.1,971.3c7.3-7.1,10.9-16.3,10.9-27.9c0-11.8-3.6-21.3-10.9-28.6
		c-7.3-7.3-16.9-10.9-28.9-10.9h-52.5c-1.2,0-1.8,0.6-1.8,1.8v74.4c0,1.2,0.6,1.8,1.8,1.8h52.5
		C1720.1,981.9,1729.8,978.4,1737.1,971.3"/>
	<path class="st0" d="M1842.6,868.7c4.6,2.6,8.2,6.1,10.8,10.5c2.6,4.4,3.9,9.3,3.9,14.8c0,5.6-1.3,10.7-3.9,15.3
		c-2.6,4.6-6.2,8.1-10.8,10.8c-4.6,2.6-9.7,3.9-15.2,3.9c-5.5,0-10.6-1.3-15.1-3.9c-4.6-2.6-8.1-6.2-10.8-10.8
		c-2.6-4.6-3.9-9.7-3.9-15.3c0-5.4,1.3-10.4,3.9-14.8c2.6-4.4,6.2-7.9,10.8-10.5c4.6-2.6,9.6-3.9,15.1-3.9
		C1832.9,864.8,1838,866.1,1842.6,868.7 M1838.8,913.4c3.4-1.9,6.1-4.6,8-8c1.9-3.4,2.9-7.3,2.9-11.5c0-4-1-7.6-3-10.9
		c-2-3.3-4.7-5.9-8-7.9c-3.4-1.9-7.1-2.9-11.3-2.9c-4.1,0-7.8,1-11.2,2.9c-3.4,1.9-6.1,4.6-8,7.9c-1.9,3.3-2.9,7-2.9,10.9
		c0,4.3,1,8.1,2.9,11.5c1.9,3.4,4.6,6.1,7.9,8c3.4,1.9,7.1,2.9,11.3,2.9C1831.6,916.3,1835.3,915.4,1838.8,913.4 M1833.9,896
		c-0.4,0.1-0.5,0.4-0.3,0.9l3.3,8.8c0.1,0.2,0.1,0.4,0.1,0.7c0,0.9-0.5,1.3-1.6,1.3h-2.8c-1,0-1.6-0.5-1.9-1.5l-3.1-8.6
		c-0.2-0.4-0.4-0.6-0.7-0.6h-0.9c-0.5,0-0.7,0.2-0.7,0.7v8.2c0,0.5-0.2,0.9-0.5,1.3c-0.3,0.3-0.8,0.5-1.3,0.5h-2.5
		c-0.5,0-0.9-0.2-1.3-0.5c-0.3-0.3-0.5-0.8-0.5-1.3v-23.6c0-0.5,0.2-0.9,0.5-1.3c0.3-0.3,0.8-0.5,1.3-0.5h8.3c2.5,0,4.5,0.8,6.1,2.4
		c1.6,1.6,2.4,3.6,2.4,6C1837.6,892.1,1836.4,894.4,1833.9,896 M1825.2,886.5v5.2c0,0.5,0.2,0.7,0.7,0.7h2.4c1,0,1.8-0.3,2.4-1
		c0.6-0.6,0.9-1.4,0.9-2.3c0-1-0.3-1.8-0.9-2.4c-0.6-0.6-1.4-1-2.4-1h-2.4C1825.4,885.7,1825.2,886,1825.2,886.5"/>
	<path class="st0" d="M372.7,749.4c-47.2,5.5-82.9,17.9-116.6,40.4c-17,11.3-26.6,19.3-41.4,34.1c-30,30.2-50.2,64.4-62,105.3
		c-4.5,15.7-6.1,23.4-8.4,42.6c-5.8,47.6,2.5,95.6,24.2,139.6c11.7,23.7,28.5,46.8,48.2,66.7c31,31.1,65.8,51.3,110,63.9
		c13.1,3.7,21.7,5.4,39.6,7.4c26.4,3.1,49.7,2.2,76.9-3c72.8-14,138.7-63.2,172.9-129c14.6-28.2,23.3-56.3,27-87.8
		c9.4-78.8-17.4-154.2-74.5-210.1c-19.8-19.4-37.7-32-62.5-44.3c-25.9-12.9-53.6-21.1-82.5-24.5
		C408.5,748.9,382.4,748.2,372.7,749.4 M422.6,789.3c35.6,4.9,68,18,97.7,39.7c12.7,9.4,34.3,30.9,43.9,43.7
		c22.5,30.4,35.9,64,40.9,101.9c1.7,13.3,1.5,40.2-0.5,54.3c-13.6,96.2-89.7,170.7-186.4,182.4c-10.8,1.3-36.7,1.3-48.7-0.1
		c-46.2-5.1-91.3-26.8-124.9-60c-31-30.7-51.7-69.4-59.8-111.7c-3.1-16.5-4.3-46.6-2.3-63c2.8-24.8,9.7-48.2,20.6-70.2
		C244.2,823.5,331.7,776.8,422.6,789.3"/>
	<path class="st0" d="M484.4,847.1c-0.3,0.4,1.1,3.7,3,7.5c3,5.9,3.6,7.8,3.5,12.8c-0.1,8.1-5.2,18.3-6.7,13.5
		c-1.2-3.6-5.2-6.3-9.5-6.5c-3.6-0.1-4.5,0.4-7.6,3.9c-2,2.2-5.2,5.1-7.2,6.7c-6.6,4.8-8.5,11.7-6.3,22.3l1.5,6.7l-4.1-0.7
		c-4.5-0.9-8.2-0.9-13.3-0.3c-3.2,0.5-3.5,0.2-8.5-6.8l-5.2-7.3l0.6-13.2c0.6-15.1-0.5-15.4-2.9-0.7c-2.1,12.7-2,14.6,1.3,22.9
		c1.6,3.9,2.3,7.1,1.9,7.1c-0.6,0-3.1-1.2-5.8-2.5c-5.3-2.9-6.1-4.2-10.7-18.5c-5.5-17-6.6-14.4-2.1,5.2c1.9,8.1,3.4,12.7,4.8,14.2
		c3.2,3.4,2.6,3.8-2.9,1.7c-3.8-1.5-7.2-4.1-13.7-10.5c-4.7-4.7-8.8-8.3-9.1-8c-0.8,0.9,8.7,13.8,13.1,17.8c2.2,2.1,8,5.5,12.8,7.7
		c8.1,3.7,10.3,5.7,7.8,7.1c-0.5,0.3-13.6-1.7-29-4.4c-60.2-10.5-73.4-11.8-120.1-12.4c-30.6-0.4-38.7-0.2-45.9,1
		c-4.8,0.9-9.1,2-9.6,2.4c-1.8,1.8,5.6,8.4,19.9,17.8c31.1,20.4,57,29.7,83.5,29.8c14.7,0,19.2-1.2,28.3-7.3c3.2-2.2,8-4.6,10.8-5.4
		c4.4-1.3,52-6.4,59.2-6.4c2.3,0,3,0.8,5.7,6.8c1.7,3.7,2.9,6.8,2.7,6.8c-0.1,0-2-0.7-4-1.6c-5.4-2.2-13.2-1.5-20.9,2.1
		c-8.6,4-24.4,16.7-39.2,31.6c-17.5,17.5-28.9,33.3-44.4,61.1c-8.3,14.9-23.4,46.5-22.6,47.2c0.9,0.9,36.4-16.3,52-25.3
		c25.9-14.8,42-26.7,58.1-43.4c28.5-29.5,36.9-44.6,32.2-58c-0.6-1.8-0.9-3.3-0.7-3.5c0.3-0.3,3.1,0.7,6.5,2.2
		c5.2,2.2,6.1,2.9,6.1,5.1c0.1,4.7-4.1,49.4-5.1,54.7c-0.5,2.8-2.5,8.1-4.4,11.7c-9.8,18.5-9.3,17.2-9.8,26.3
		c-0.6,9.8,2.7,30.4,7.1,44.6c7,22.4,36.2,68.9,40.6,64.5c2.1-2.1,2.9-9,3.7-29.1c1.8-44.9-1.6-81.6-13.7-151.9
		c-2.2-12.5-3.6-23.2-3.3-23.8c1.5-2.2,3.3-0.2,8,9.3c4.6,9.2,5.7,10.7,12.2,15.9c14.6,11.8,16.7,11.7,4.6-0.2
		c-8.3-8.3-10-10.7-11.1-16.1l-0.7-3.4l2.4,2.3c3.4,3.1,32,10.2,32,7.9c0-0.5-6.1-2.8-13.4-5.2l-13.5-4.3l-3.3-5.6
		c-1.8-3-3.1-5.8-2.8-6c0.3-0.3,3.7,0.6,7.6,2c8.4,2.8,10,2.9,23,1c14.9-2.2,14.1-3.5-2-3.2l-13.7,0.3l-6.6-4.7l-6.5-4.6l-0.4-10.6
		c-0.2-5.8-0.4-10.6-0.3-10.7c0,0,2.6,0.6,5.9,1.5c10.3,2.6,18.7-0.1,23.8-7.6c1.3-1.9,3.3-4,4.5-4.8c6.2-3.7,6.8-11.6,1.5-16.1
		c-1.7-1.4-3.4-2.5-3.9-2.5c-0.5,0-0.9-0.3-0.9-0.8c0-1.1,13.8-6.1,16.9-6.1c1.5,0,5.8,1.6,9.5,3.4c6.9,3.5,9.8,4.2,9.8,2.4
		c0-1.9-15.7-8.8-19.9-8.8c-2.2,0-7.1,1.5-11.5,3.3l-7.6,3.3l-2.1-3.1c-2.1-3.4-11.1-12.2-14.1-14c-1.8-1-1.8-1.4,1.3-9.5
		c1.7-4.7,3-10,3-11.7c0-3.2-7.1-19.2-8.6-19.2C485.4,846.5,484.8,846.8,484.4,847.1"/>
</g>
</svg>
