<?xml version="1.0" encoding="UTF-8" standalone="no"?>
<!-- Generator: Adobe Illustrator 21.0.0, SVG Export Plug-In . SVG Version: 6.00 Build 0)  -->

<svg
   version="1.1"
   id="Layer_1"
   x="0px"
   y="0px"
   viewBox="0 0 1736.7773 516.60516"
   xml:space="preserve"
   sodipodi:docname="OWASP_Combo_Blue.svg"
   width="1736.7773"
   height="516.60516"
   inkscape:version="1.3.2 (091e20e, 2023-11-25, custom)"
   xmlns:inkscape="http://www.inkscape.org/namespaces/inkscape"
   xmlns:sodipodi="http://sodipodi.sourceforge.net/DTD/sodipodi-0.dtd"
   xmlns="http://www.w3.org/2000/svg"
   xmlns:svg="http://www.w3.org/2000/svg"><defs
   id="defs8" /><sodipodi:namedview
   id="namedview8"
   pagecolor="#ffffff"
   bordercolor="#000000"
   borderopacity="0.25"
   inkscape:showpageshadow="2"
   inkscape:pageopacity="0.0"
   inkscape:pagecheckerboard="0"
   inkscape:deskcolor="#d1d1d1"
   showgrid="false"
   inkscape:zoom="0.5"
   inkscape:cx="447"
   inkscape:cy="531"
   inkscape:window-width="2560"
   inkscape:window-height="1009"
   inkscape:window-x="-8"
   inkscape:window-y="-8"
   inkscape:window-maximized="1"
   inkscape:current-layer="Layer_1" />
<style
   type="text/css"
   id="style1">
	.st0{fill:#000;}
</style>
<g
   id="g8"
   transform="translate(-132.84133,-742.92743)">
	
	
	
	
	
	<path
   class="st0"
   d="m 1842.6,868.7 c 4.6,2.6 8.2,6.1 10.8,10.5 2.6,4.4 3.9,9.3 3.9,14.8 0,5.6 -1.3,10.7 -3.9,15.3 -2.6,4.6 -6.2,8.1 -10.8,10.8 -4.6,2.6 -9.7,3.9 -15.2,3.9 -5.5,0 -10.6,-1.3 -15.1,-3.9 -4.6,-2.6 -8.1,-6.2 -10.8,-10.8 -2.6,-4.6 -3.9,-9.7 -3.9,-15.3 0,-5.4 1.3,-10.4 3.9,-14.8 2.6,-4.4 6.2,-7.9 10.8,-10.5 4.6,-2.6 9.6,-3.9 15.1,-3.9 5.5,0 10.6,1.3 15.2,3.9 m -3.8,44.7 c 3.4,-1.9 6.1,-4.6 8,-8 1.9,-3.4 2.9,-7.3 2.9,-11.5 0,-4 -1,-7.6 -3,-10.9 -2,-3.3 -4.7,-5.9 -8,-7.9 -3.4,-1.9 -7.1,-2.9 -11.3,-2.9 -4.1,0 -7.8,1 -11.2,2.9 -3.4,1.9 -6.1,4.6 -8,7.9 -1.9,3.3 -2.9,7 -2.9,10.9 0,4.3 1,8.1 2.9,11.5 1.9,3.4 4.6,6.1 7.9,8 3.4,1.9 7.1,2.9 11.3,2.9 4.2,0 7.9,-0.9 11.4,-2.9 m -4.9,-17.4 c -0.4,0.1 -0.5,0.4 -0.3,0.9 l 3.3,8.8 c 0.1,0.2 0.1,0.4 0.1,0.7 0,0.9 -0.5,1.3 -1.6,1.3 h -2.8 c -1,0 -1.6,-0.5 -1.9,-1.5 l -3.1,-8.6 c -0.2,-0.4 -0.4,-0.6 -0.7,-0.6 h -0.9 c -0.5,0 -0.7,0.2 -0.7,0.7 v 8.2 c 0,0.5 -0.2,0.9 -0.5,1.3 -0.3,0.3 -0.8,0.5 -1.3,0.5 h -2.5 c -0.5,0 -0.9,-0.2 -1.3,-0.5 -0.3,-0.3 -0.5,-0.8 -0.5,-1.3 v -23.6 c 0,-0.5 0.2,-0.9 0.5,-1.3 0.3,-0.3 0.8,-0.5 1.3,-0.5 h 8.3 c 2.5,0 4.5,0.8 6.1,2.4 1.6,1.6 2.4,3.6 2.4,6 -0.2,3.2 -1.4,5.5 -3.9,7.1 m -8.7,-9.5 v 5.2 c 0,0.5 0.2,0.7 0.7,0.7 h 2.4 c 1,0 1.8,-0.3 2.4,-1 0.6,-0.6 0.9,-1.4 0.9,-2.3 0,-1 -0.3,-1.8 -0.9,-2.4 -0.6,-0.6 -1.4,-1 -2.4,-1 h -2.4 c -0.5,0 -0.7,0.3 -0.7,0.8"
   id="path6" />
	<path
   class="st0"
   d="m 372.7,749.4 c -47.2,5.5 -82.9,17.9 -116.6,40.4 -17,11.3 -26.6,19.3 -41.4,34.1 -30,30.2 -50.2,64.4 -62,105.3 -4.5,15.7 -6.1,23.4 -8.4,42.6 -5.8,47.6 2.5,95.6 24.2,139.6 11.7,23.7 28.5,46.8 48.2,66.7 31,31.1 65.8,51.3 110,63.9 13.1,3.7 21.7,5.4 39.6,7.4 26.4,3.1 49.7,2.2 76.9,-3 72.8,-14 138.7,-63.2 172.9,-129 14.6,-28.2 23.3,-56.3 27,-87.8 9.4,-78.8 -17.4,-154.2 -74.5,-210.1 -19.8,-19.4 -37.7,-32 -62.5,-44.3 -25.9,-12.9 -53.6,-21.1 -82.5,-24.5 -15.1,-1.8 -41.2,-2.5 -50.9,-1.3 m 49.9,39.9 c 35.6,4.9 68,18 97.7,39.7 12.7,9.4 34.3,30.9 43.9,43.7 22.5,30.4 35.9,64 40.9,101.9 1.7,13.3 1.5,40.2 -0.5,54.3 -13.6,96.2 -89.7,170.7 -186.4,182.4 -10.8,1.3 -36.7,1.3 -48.7,-0.1 -46.2,-5.1 -91.3,-26.8 -124.9,-60 -31,-30.7 -51.7,-69.4 -59.8,-111.7 -3.1,-16.5 -4.3,-46.6 -2.3,-63 2.8,-24.8 9.7,-48.2 20.6,-70.2 41.1,-82.8 128.6,-129.5 219.5,-117"
   id="path7" />
	<path
   class="st0"
   d="m 484.4,847.1 c -0.3,0.4 1.1,3.7 3,7.5 3,5.9 3.6,7.8 3.5,12.8 -0.1,8.1 -5.2,18.3 -6.7,13.5 -1.2,-3.6 -5.2,-6.3 -9.5,-6.5 -3.6,-0.1 -4.5,0.4 -7.6,3.9 -2,2.2 -5.2,5.1 -7.2,6.7 -6.6,4.8 -8.5,11.7 -6.3,22.3 l 1.5,6.7 -4.1,-0.7 c -4.5,-0.9 -8.2,-0.9 -13.3,-0.3 -3.2,0.5 -3.5,0.2 -8.5,-6.8 l -5.2,-7.3 0.6,-13.2 c 0.6,-15.1 -0.5,-15.4 -2.9,-0.7 -2.1,12.7 -2,14.6 1.3,22.9 1.6,3.9 2.3,7.1 1.9,7.1 -0.6,0 -3.1,-1.2 -5.8,-2.5 -5.3,-2.9 -6.1,-4.2 -10.7,-18.5 -5.5,-17 -6.6,-14.4 -2.1,5.2 1.9,8.1 3.4,12.7 4.8,14.2 3.2,3.4 2.6,3.8 -2.9,1.7 -3.8,-1.5 -7.2,-4.1 -13.7,-10.5 -4.7,-4.7 -8.8,-8.3 -9.1,-8 -0.8,0.9 8.7,13.8 13.1,17.8 2.2,2.1 8,5.5 12.8,7.7 8.1,3.7 10.3,5.7 7.8,7.1 -0.5,0.3 -13.6,-1.7 -29,-4.4 C 329.9,914.3 316.7,913 270,912.4 c -30.6,-0.4 -38.7,-0.2 -45.9,1 -4.8,0.9 -9.1,2 -9.6,2.4 -1.8,1.8 5.6,8.4 19.9,17.8 31.1,20.4 57,29.7 83.5,29.8 14.7,0 19.2,-1.2 28.3,-7.3 3.2,-2.2 8,-4.6 10.8,-5.4 4.4,-1.3 52,-6.4 59.2,-6.4 2.3,0 3,0.8 5.7,6.8 1.7,3.7 2.9,6.8 2.7,6.8 -0.1,0 -2,-0.7 -4,-1.6 -5.4,-2.2 -13.2,-1.5 -20.9,2.1 -8.6,4 -24.4,16.7 -39.2,31.6 -17.5,17.5 -28.9,33.3 -44.4,61.1 -8.3,14.9 -23.4,46.5 -22.6,47.2 0.9,0.9 36.4,-16.3 52,-25.3 25.9,-14.8 42,-26.7 58.1,-43.4 28.5,-29.5 36.9,-44.6 32.2,-58 -0.6,-1.8 -0.9,-3.3 -0.7,-3.5 0.3,-0.3 3.1,0.7 6.5,2.2 5.2,2.2 6.1,2.9 6.1,5.1 0.1,4.7 -4.1,49.4 -5.1,54.7 -0.5,2.8 -2.5,8.1 -4.4,11.7 -9.8,18.5 -9.3,17.2 -9.8,26.3 -0.6,9.8 2.7,30.4 7.1,44.6 7,22.4 36.2,68.9 40.6,64.5 2.1,-2.1 2.9,-9 3.7,-29.1 1.8,-44.9 -1.6,-81.6 -13.7,-151.9 -2.2,-12.5 -3.6,-23.2 -3.3,-23.8 1.5,-2.2 3.3,-0.2 8,9.3 4.6,9.2 5.7,10.7 12.2,15.9 14.6,11.8 16.7,11.7 4.6,-0.2 -8.3,-8.3 -10,-10.7 -11.1,-16.1 l -0.7,-3.4 2.4,2.3 c 3.4,3.1 32,10.2 32,7.9 0,-0.5 -6.1,-2.8 -13.4,-5.2 L 483.3,978.6 480,973 c -1.8,-3 -3.1,-5.8 -2.8,-6 0.3,-0.3 3.7,0.6 7.6,2 8.4,2.8 10,2.9 23,1 14.9,-2.2 14.1,-3.5 -2,-3.2 l -13.7,0.3 -6.6,-4.7 -6.5,-4.6 -0.4,-10.6 c -0.2,-5.8 -0.4,-10.6 -0.3,-10.7 0,0 2.6,0.6 5.9,1.5 10.3,2.6 18.7,-0.1 23.8,-7.6 1.3,-1.9 3.3,-4 4.5,-4.8 6.2,-3.7 6.8,-11.6 1.5,-16.1 -1.7,-1.4 -3.4,-2.5 -3.9,-2.5 -0.5,0 -0.9,-0.3 -0.9,-0.8 0,-1.1 13.8,-6.1 16.9,-6.1 1.5,0 5.8,1.6 9.5,3.4 6.9,3.5 9.8,4.2 9.8,2.4 0,-1.9 -15.7,-8.8 -19.9,-8.8 -2.2,0 -7.1,1.5 -11.5,3.3 l -7.6,3.3 -2.1,-3.1 c -2.1,-3.4 -11.1,-12.2 -14.1,-14 -1.8,-1 -1.8,-1.4 1.3,-9.5 1.7,-4.7 3,-10 3,-11.7 0,-3.2 -7.1,-19.2 -8.6,-19.2 -0.5,0.3 -1.1,0.6 -1.5,0.9"
   id="path8" />
</g>
<text
   xml:space="preserve"
   style="font-style:normal;font-variant:normal;font-weight:500;font-stretch:normal;font-size:282.667px;font-family:'Montserrat Alternates';-inkscape-font-specification:'Montserrat Alternates Medium';fill:#233e81;fill-opacity:1"
   x="504.30502"
   y="361.6236"
   id="text8"><tspan
     id="tspan8"
     x="504.30502"
     y="361.6236"
     style="font-style:normal;font-variant:normal;font-weight:bold;font-stretch:normal;font-size:282.667px;font-family:'Montserrat Alternates';-inkscape-font-specification:'Montserrat Alternates Bold';fill:#233e81;fill-opacity:1"
     sodipodi:role="line">OWASP</tspan></text><path
   style="fill:#233e81;fill-opacity:1;stroke-width:2.46002"
   d="M 223.86224,504.21134 C 183.212,497.98763 133.15303,475.45279 101.89778,449.30708 66.356098,419.57569 36.409934,374.82177 22.611309,330.8151 -7.1666475,235.84705 23.736074,130.31528 100.01477,66.484868 130.49217,40.981213 162.1301,24.87728 202.42125,14.359229 231.1218,6.8669197 285.34563,6.3095226 314.88315,13.20317 c 47.74445,11.142894 85.25633,31.727878 119.39227,65.517617 49.70918,49.205033 72.67954,100.541543 75.4,168.511683 1.06748,26.6707 0.39713,36.26886 -4.03768,57.81058 -10.53442,51.17009 -31.60871,90.69075 -67.65513,126.87378 -48.09673,48.27896 -102.20628,71.93899 -168.60992,73.72656 -16.91267,0.45528 -37.39237,-0.18915 -45.51045,-1.43205 z m 81.89953,-38.24362 c 78.86608,-16.20856 143.84207,-79.61239 162.85301,-158.91264 7.27302,-30.33786 6.82798,-72.65915 -1.09237,-103.88211 -8.8936,-35.05954 -24.83749,-63.72686 -50.54824,-90.88625 -44.01205,-46.491881 -93.431,-68.006277 -156.21156,-68.006277 -61.6737,0 -111.62774,21.357422 -154.21549,65.933517 -38.898242,40.71433 -58.57664,89.61853 -58.57664,145.57303 0,61.71446 22.388354,114.39712 66.08314,155.50201 30.13194,28.34598 63.90646,46.46072 102.42854,54.93683 20.80584,4.57798 66.38992,4.4462 89.27961,-0.25811 z"
   id="path9" /><path
   style="fill:#233e81;fill-opacity:1;stroke-width:2.46002"
   d="m 332.47105,421.79843 c -19.91657,-26.87695 -35.85511,-68.37736 -35.99537,-93.72396 -0.0235,-4.24538 3.19471,-14.76199 7.15156,-23.37023 5.33182,-11.59951 7.87923,-22.20408 9.8401,-40.96308 3.54038,-33.86967 3.55144,-33.7565 -3.61999,-37.02403 -8.76799,-3.99496 -9.28386,-3.72746 -7.73607,4.01148 0.81327,4.06635 -0.41096,10.8516 -3.00212,16.63915 -6.75241,15.08198 -32.95647,43.77479 -54.89025,60.10346 -18.47198,13.75153 -77.29243,46.00713 -79.63164,43.66792 -1.89313,-1.89313 25.75247,-53.45055 38.71577,-72.20262 14.50427,-20.98116 47.21372,-52.88477 61.90461,-60.3795 6.88958,-3.51481 12.75422,-4.69056 19.13048,-3.83533 l 9.1951,1.23332 -2.4824,-7.12102 c -1.36532,-3.91656 -3.22273,-7.57857 -4.12759,-8.1378 -0.90485,-0.55923 -15.57082,0.43249 -32.59104,2.20383 -24.52861,2.55276 -33.44312,4.55002 -42.98846,9.6314 -20.21923,10.76352 -49.69748,7.7612 -82.78092,-8.43115 -17.65949,-8.64326 -41.703928,-24.70441 -43.055926,-28.7604 -2.886184,-8.65855 95.615556,-5.2887 156.805526,5.36448 38.17057,6.6455 46.74047,7.42361 46.74047,4.24381 0,-1.10754 -3.59779,-3.80427 -7.99508,-5.99273 -5.0792,-2.52784 -6.42499,-4.0364 -3.69004,-4.13635 2.36778,-0.0865 4.30505,-1.28543 4.30505,-2.66423 0,-1.45856 2.6226,-1.84866 6.27151,-0.93284 5.87478,1.47448 6.16436,1.12729 4.57759,-5.48819 l -1.69393,-7.06223 5.19458,6.45171 c 4.15549,5.16116 7.42551,6.4965 16.34738,6.67558 l 11.15281,0.22386 -1.5852,-9.91327 c -1.45887,-9.12329 -0.83216,-10.68445 7.86458,-19.5907 5.19737,-5.32259 10.70841,-9.67744 12.24677,-9.67744 4.35478,0 40.4677,37.63301 40.4768,42.18058 0.004,2.22762 -4.04588,7.60966 -9.00077,11.9601 -7.89626,6.93302 -10.31569,7.7626 -19.59033,6.71722 l -10.58145,-1.19269 1.40145,11.37281 c 1.00588,8.16294 3.23705,12.94209 7.90519,16.93294 l 6.50379,5.56013 -8.27631,-1.61884 c -7.6383,-1.49405 -8.14703,-1.21153 -6.59928,3.66496 0.93175,2.93575 0.61249,5.2838 -0.71848,5.2838 -1.31754,0 -1.88721,2.49077 -1.26598,5.53505 0.68795,3.37108 -0.92516,1.81649 -4.126,-3.97637 -9.30947,-16.84817 -10.38563,-7.62534 -3.8613,33.09134 3.34196,20.85639 7.25552,48.67043 8.69677,61.80898 2.97735,27.14192 3.23066,91.74803 0.3882,99.01716 -1.66534,4.25882 -2.94638,3.39385 -10.93016,-7.38007 z"
   id="path10" /><path
   style="fill:#233e81;fill-opacity:1;stroke-width:2.46002"
   d="m 1679.7388,174.78419 c -4.3109,-2.62857 -9.0157,-6.9797 -10.4551,-9.66918 -3.846,-7.18638 -3.1865,-22.98588 1.2223,-29.28034 4.59,-6.55311 16.0129,-12.83344 23.342,-12.83344 8.8469,0 22.0289,7.64332 25.8176,14.9697 13.3917,25.89673 -14.9594,52.03697 -39.9268,36.81326 z m 29.9932,-5.66134 c 4.3341,-3.72799 6.8925,-8.91705 7.8253,-15.87141 1.2285,-9.15932 0.5344,-11.18397 -6.113,-17.83134 -10.2425,-10.24256 -22.6155,-10.35921 -32.6667,-0.30798 -20.7627,20.76264 8.7096,53.14489 30.9544,34.01073 z"
   id="path11" /><path
   style="fill:#233e81;fill-opacity:1;stroke-width:0.153752"
   d="m 1687.3097,164.42722 c -0.9193,-0.49882 -0.886,-0.002 -0.886,-13.22015 0,-10.98403 0.024,-12.14199 0.2572,-12.63418 0.4581,-0.96535 0.6814,-0.99771 6.4173,-0.92992 4.7194,0.0558 5.1607,0.0843 6.098,0.3945 2.7439,0.90797 4.8721,3.25166 5.4566,6.00896 0.7174,3.38472 -0.6478,6.89023 -3.4305,8.80822 -0.3594,0.24773 -0.6534,0.54012 -0.6534,0.64976 0,0.10965 0.7956,2.32065 1.7681,4.91334 0.9725,2.59269 1.7682,4.88979 1.7682,5.10467 0,0.21488 -0.1699,0.56052 -0.3774,0.76809 -0.3643,0.36428 -0.4512,0.37739 -2.5027,0.37739 -2.3147,0 -2.6074,-0.0872 -3.029,-0.90252 -0.1202,-0.23243 -0.9252,-2.39036 -1.7888,-4.7954 -0.8637,-2.40505 -1.6778,-4.49684 -1.8091,-4.64844 -0.1903,-0.21952 -0.4285,-0.26647 -1.1701,-0.23062 l -0.9312,0.045 -0.077,4.68942 c -0.083,5.05463 -0.105,5.18913 -0.9195,5.61034 -0.62,0.32062 -3.5954,0.31461 -4.1909,-0.008 z m 9.5691,-15.12288 c 2.4279,-1.27406 2.6237,-4.77784 0.3419,-6.11913 -0.6658,-0.3914 -0.8807,-0.43136 -2.5836,-0.48044 -1.5772,-0.0454 -1.8961,-0.0148 -2.1141,0.20317 -0.2221,0.22209 -0.2567,0.65804 -0.2567,3.2329 0,2.58639 0.034,3.01014 0.2592,3.23541 0.2224,0.22235 0.5231,0.25001 2.1141,0.19451 1.1092,-0.0387 2.0094,-0.1458 2.2392,-0.26642 z"
   id="path12" /><path
   style="fill:#233e81;fill-opacity:1;stroke-width:0.153752"
   d="m 1690.8825,180.79296 c -5.9577,-0.68565 -11.7878,-3.26523 -16.2207,-7.17709 -4.2436,-3.74472 -7.5531,-9.24802 -8.8946,-14.79053 -1.1049,-4.56456 -1.1739,-10.19868 -0.1785,-14.56338 1.3677,-5.99724 5.0023,-11.77916 9.8418,-15.65626 10.358,-8.29809 25.3017,-8.8903 36.3793,-1.44169 8.8153,5.92736 13.4941,16.05511 12.4354,26.91718 -0.7135,7.31999 -3.7671,13.83953 -8.7053,18.58597 -4.8286,4.64121 -10.7258,7.38341 -17.5079,8.14125 -1.6275,0.18186 -5.5079,0.17347 -7.1495,-0.0155 z m 7.7645,-1.68206 c 6.5496,-0.78565 13.0088,-4.21892 17.4822,-9.29233 5.913,-6.70615 8.2142,-15.32528 6.4185,-24.0399 -0.6407,-3.10927 -2.2507,-7.12207 -3.7879,-9.44111 -0.9543,-1.4398 -4.0173,-4.5051 -5.9293,-5.93394 -4.1307,-3.08674 -9.1197,-5.53019 -13.7991,-6.75829 -2.0042,-0.52597 -2.1737,-0.54513 -4.9201,-0.55598 -2.2445,-0.009 -3.0876,0.0473 -3.9975,0.26654 -6.2715,1.51077 -13.4687,5.60343 -17.6899,10.05929 -3.2191,3.3981 -4.6916,7.10463 -5.4583,13.73988 -0.3195,2.76488 -0.2369,8.57031 0.157,11.03643 0.4916,3.07776 1.3187,5.65551 2.4142,7.52419 0.7512,1.28143 4.8907,5.36733 7.1541,7.06152 6.9114,5.17319 14.1714,7.26751 21.9561,6.3337 z"
   id="path13" /><path
   style="fill:#233e81;fill-opacity:1;stroke-width:0.153752"
   d="m 1691.5744,174.56832 c -9.7023,-1.73209 -17.7675,-9.9821 -19.4679,-19.91406 -0.2726,-1.59218 -0.3113,-2.27789 -0.2377,-4.20838 0.126,-3.30456 0.7567,-5.84425 2.1384,-8.61009 0.7003,-1.40179 2.2465,-3.84059 2.3619,-3.72524 0.042,0.0423 -0.2093,0.51723 -0.5591,1.05543 -1.363,2.09757 -2.4182,4.72651 -3.0231,7.53224 -0.4284,1.98655 -0.3855,7.17632 0.077,9.31168 0.6727,3.10665 2.0323,6.19451 3.822,8.68009 1.1154,1.54916 3.6004,3.94975 5.2049,5.02809 2.272,1.527 4.9413,2.62649 7.9764,3.28558 1.3266,0.28808 2.0251,0.33691 4.7823,0.3343 2.7359,-0.003 3.4678,-0.0545 4.7952,-0.34 4.4127,-0.94916 8.0131,-2.8784 11.0607,-5.92688 3.2866,-3.28745 5.2433,-7.11898 6.0524,-11.85136 0.3879,-2.26918 0.4174,-5.84068 0.065,-7.93709 -0.7073,-4.21361 -2.8336,-8.2784 -5.9837,-11.43909 -2.3413,-2.34917 -4.7066,-3.94859 -7.3923,-4.99863 -4.2729,-1.67061 -9.0119,-2.07483 -13.518,-1.15303 -3.7689,0.77098 -7.8982,2.9063 -10.6472,5.50579 -0.444,0.41981 -0.8072,0.68625 -0.8072,0.59209 0,-0.30161 3.2513,-3.08433 4.9044,-4.19756 2.553,-1.71924 4.7205,-2.70053 7.4726,-3.38306 1.7891,-0.4437 5.2293,-0.54859 7.226,-0.22031 5.2653,0.86572 10.326,3.93873 15.177,9.21594 3.0653,3.33458 4.172,5.14254 4.6695,7.62818 0.4618,2.30716 0.06,7.8286 -0.8553,11.75125 -1.2325,5.28231 -3.7749,9.60718 -7.4439,12.66285 -3.4824,2.90025 -7.1287,4.65756 -11.0674,5.33396 -1.6985,0.29168 -5.1143,0.28529 -6.7834,-0.0127 z"
   id="path14" /><path
   style="fill:#233e81;fill-opacity:1;stroke-width:0.307503"
   d="m 338.87085,429.50492 c -3.65017,-3.75345 -11.28373,-14.58216 -16.20359,-22.98585 -14.19967,-24.25473 -24.36,-53.4529 -25.84155,-74.262 -0.34668,-4.86935 -0.34154,-4.95966 0.4992,-8.76383 1.11573,-5.04849 3.10163,-10.90177 5.9468,-17.52768 7.07005,-16.46493 8.41715,-22.80485 11.63016,-54.73555 0.95162,-9.45708 1.14118,-17.47847 0.46789,-19.79834 -0.24767,-0.85335 -0.85877,-1.92478 -1.41517,-2.48118 -1.33602,-1.33602 -8.3481,-4.4754 -10.48994,-4.69646 -1.57879,-0.16294 -1.64519,-0.13883 -1.9808,0.71919 -0.26943,0.68883 -0.23576,1.54245 0.15024,3.80907 0.95758,5.62288 0.33681,10.81448 -2.0114,16.82169 -3.71207,9.49625 -14.95879,24.03555 -31.00418,40.08095 -12.96954,12.96954 -22.29984,20.65483 -34.60867,28.50689 -25.32267,16.15386 -67.52726,38.58638 -69.28655,36.82708 -1.02516,-1.02516 11.35178,-25.84502 23.38685,-46.89836 15.33159,-26.82006 22.79488,-36.69832 43.121,-57.07401 23.73741,-23.7953 36.8621,-32.44402 49.16876,-32.40054 1.37661,0.005 4.85533,0.33226 7.73048,0.72754 2.87516,0.39529 5.29528,0.65799 5.37806,0.58379 0.20115,-0.18031 -2.2616,-7.25007 -3.70208,-10.62746 -0.63242,-1.48279 -1.53312,-3.19848 -2.00157,-3.81264 l -0.85172,-1.11667 -5.56141,0.18287 c -11.50766,0.37839 -37.22449,3.01706 -48.7418,5.00114 -8.60151,1.48178 -13.13229,2.89876 -20.62649,6.45083 -8.11543,3.84652 -12.35143,5.15898 -19.77282,6.1263 -4.1657,0.54296 -12.21241,0.61825 -16.86434,0.15778 -21.94714,-2.17242 -46.53619,-12.14613 -73.14144,-29.66734 -9.539447,-6.28232 -16.605163,-12.07876 -16.605163,-13.62223 0,-0.97025 1.477191,-1.77008 4.599561,-2.49047 5.837655,-1.34685 14.437202,-1.87306 30.609542,-1.87301 25.40535,8e-5 54.20505,1.73007 84.59623,5.08165 14.14474,1.5599 23.92955,2.95594 42.20431,6.02148 25.44581,4.26846 34.95393,5.51193 38.63243,5.05233 4.86972,-0.60843 3.44439,-3.32096 -3.81724,-7.26455 -4.09646,-2.22467 -6.17293,-3.59951 -6.17293,-4.08713 0,-0.27011 0.54787,-0.48017 1.5672,-0.60089 2.07274,-0.24549 3.42458,-1.0642 3.83803,-2.3244 0.18229,-0.55561 0.52823,-1.13476 0.76876,-1.28699 0.71922,-0.45521 3.39038,-0.32439 6.449,0.31584 2.38245,0.4987 3.01076,0.53624 3.65984,0.21868 0.71016,-0.34744 0.77812,-0.54074 0.72517,-2.06269 -0.0321,-0.92362 -0.48459,-3.46395 -1.00546,-5.64516 -0.52087,-2.18121 -0.89492,-4.01795 -0.83122,-4.08165 0.0637,-0.0637 1.46202,1.54837 3.10737,3.58239 5.94433,7.34849 7.21434,7.87278 20.25453,8.36149 4.70342,0.17627 8.61886,0.2533 8.70098,0.17117 0.0821,-0.0821 -0.28549,-2.82981 -0.81692,-6.10598 -1.70267,-10.49659 -1.58433,-12.40735 1.00888,-16.29072 2.48889,-3.72714 11.57535,-12.57282 15.91476,-15.49302 1.7899,-1.20452 2.70529,-1.33184 3.9362,-0.54748 8.89137,5.66575 38.81144,37.54 38.81144,41.34636 0,0.8454 -1.27592,3.22334 -2.85878,5.32793 -1.8651,2.47986 -7.18737,7.61564 -10.23026,9.87181 -2.95593,2.19169 -4.83129,3.04644 -7.69086,3.50535 -2.27192,0.3646 -2.24908,0.36589 -11.73751,-0.66408 -3.42424,-0.3717 -6.31406,-0.58765 -6.42183,-0.47988 -0.32756,0.32757 1.43908,13.70082 2.22215,16.82131 1.4362,5.72321 3.4731,8.66061 9.59437,13.83599 1.69924,1.43667 3.05159,2.65008 3.00521,2.69646 -0.0464,0.0464 -2.60251,-0.4026 -5.68027,-0.99774 -6.21468,-1.20171 -8.04413,-1.3266 -8.77189,-0.59884 -0.61491,0.61491 -0.60879,0.77089 0.13179,3.36057 1.01719,3.55692 0.69991,5.99631 -0.7799,5.99631 -0.97548,0 -1.49507,2.45521 -1.06976,5.05487 0.54072,3.30497 0.0787,2.8379 -4.07566,-4.1204 -3.33376,-5.58383 -4.96014,-7.48811 -6.26759,-7.33851 -1.25481,0.14357 -1.60651,1.4684 -1.62737,6.13033 -0.0294,6.57185 1.02269,15.43549 4.4673,37.63533 3.82329,24.64042 7.27121,49.56459 8.42267,60.88561 1.5359,15.10065 2.29549,38.73685 2.06538,64.26814 -0.20459,22.6998 -0.66898,30.08898 -2.0962,33.35333 -1.07201,2.4519 -1.67084,2.44227 -4.11021,-0.0661 z"
   id="path15" /><path
   style="fill:#233e81;fill-opacity:1;stroke-width:0.307503"
   d="m 338.8719,429.50492 c -2.22509,-2.28934 -7.00061,-8.62594 -10.83416,-14.37577 -16.36546,-24.54605 -29.19434,-58.28937 -31.16858,-81.9815 -0.43823,-5.25897 -0.26972,-7.16903 1.08351,-12.28146 1.28164,-4.84196 3.00032,-9.57247 6.08401,-16.74565 6.20156,-14.42587 7.98752,-23.29085 11.02715,-54.73555 0.36785,-3.80535 0.68524,-9.20203 0.70532,-11.99262 0.0348,-4.83511 3.4e-4,-5.14602 -0.73225,-6.60905 -0.43903,-0.87677 -1.31595,-1.94687 -2.04454,-2.49494 -1.72103,-1.29463 -7.90874,-3.87767 -9.71044,-4.05359 -1.36987,-0.13377 -1.47286,-0.0914 -1.78722,0.73546 -0.25367,0.66719 -0.20822,1.64176 0.1897,4.06777 1.22262,7.45389 -0.51738,15.02887 -5.30948,23.1145 -5.49769,9.27615 -15.14928,20.94301 -27.74755,33.54128 -15.82167,15.82167 -25.30015,23.14417 -46.04158,35.56893 -24.52044,14.6885 -53.84084,29.90578 -57.62196,29.90578 -2.77345,0 21.6025,-46.32679 35.90158,-68.23136 7.86539,-12.0489 18.03876,-23.93032 33.33644,-38.93346 13.75593,-13.49107 24.67932,-22.19748 32.55707,-25.94935 7.14337,-3.40212 11.8282,-4.00021 21.29459,-2.71857 3.43722,0.46536 5.45818,0.62269 5.45818,0.42492 0,-0.72531 -3.23115,-9.47019 -4.35119,-11.77621 -1.8421,-3.79264 -1.45092,-3.62413 -7.87283,-3.39145 -11.98902,0.4344 -36.9423,3.00236 -48.66159,5.00781 -8.64574,1.47949 -13.09338,2.87918 -20.91021,6.58054 -5.65776,2.67901 -8.96921,3.91152 -13.06888,4.8642 -9.10062,2.11477 -20.83783,2.1268 -31.98032,0.0327 -13.84072,-2.60113 -29.12622,-8.22918 -43.93766,-16.17763 -17.80911,-9.55714 -37.422468,-23.30037 -37.039053,-25.95354 0.41904,-2.8997 11.801937,-4.27801 35.312503,-4.27587 23.06091,0.002 48.4337,1.39213 75.95326,4.16099 18.2535,1.83657 30.10092,3.46137 51.50677,7.06382 30.0188,5.05197 38.365,5.90741 40.15656,4.11585 0.32317,-0.32318 0.58759,-0.79749 0.58759,-1.05402 0,-0.87123 -2.75741,-3.11306 -6.22763,-5.06319 -4.83941,-2.71956 -6.6875,-3.94229 -6.6875,-4.42454 0,-0.26981 0.54602,-0.47995 1.55872,-0.59989 2.04148,-0.24179 3.64368,-1.23592 3.8777,-2.40604 0.0989,-0.49467 0.42926,-1.03286 0.73405,-1.19598 0.80588,-0.43129 3.54266,-0.35476 5.6684,0.15852 1.01476,0.24503 2.49744,0.45043 3.29484,0.45646 2.45253,0.0185 2.50034,-0.43337 0.82511,-7.79929 -0.49615,-2.18155 -0.85325,-4.01529 -0.79355,-4.07499 0.0597,-0.0597 1.68808,1.78248 3.61863,4.09374 5.73403,6.86483 6.87655,7.31436 19.90323,7.83113 4.61893,0.18323 8.45936,0.27185 8.53427,0.19694 0.0749,-0.0749 -0.34823,-3.23767 -0.94033,-7.02834 -0.59209,-3.79067 -1.07688,-7.75179 -1.07732,-8.80249 -0.002,-3.8782 1.73134,-6.75611 7.80698,-12.96502 6.00019,-6.13182 11.10875,-10.18612 12.83486,-10.18612 4.21448,0 40.24297,37.49257 40.24297,41.87832 0,0.8454 -1.27592,3.22334 -2.85878,5.32793 -3.16555,4.20894 -10.91547,10.93764 -14.24973,12.372 -2.0032,0.86175 -5.35871,1.39036 -7.49173,1.1802 -0.9302,-0.0916 -4.4973,-0.46562 -7.9269,-0.83105 -3.42959,-0.36544 -6.31893,-0.58112 -6.42074,-0.4793 -0.10182,0.10181 0.11754,2.64633 0.48747,5.65449 1.92513,15.65455 3.07146,18.06828 12.23494,25.7619 1.20688,1.01329 2.15414,1.88254 2.10502,1.93166 -0.0491,0.0491 -2.21822,-0.32671 -4.82022,-0.83516 -7.69718,-1.50411 -9.56131,-1.5764 -9.93929,-0.38548 -0.0966,0.30425 0.0985,1.58391 0.43352,2.84369 1.00682,3.7862 0.71156,6.13431 -0.77134,6.13431 -0.97548,0 -1.49507,2.45521 -1.06976,5.05487 0.54702,3.34349 0.0261,2.82477 -4.06084,-4.04334 -4.16778,-7.00402 -5.92772,-8.62172 -7.2253,-6.64136 -0.41171,0.62834 -0.57021,1.64147 -0.65798,4.20565 -0.21447,6.26603 0.78202,15.03986 4.28287,37.70954 9.51793,61.63318 10.57041,73.46993 10.58132,119.00369 0.007,28.75675 -0.39755,36.82899 -2.03311,40.57965 -1.06927,2.45205 -1.66947,2.44239 -4.10759,-0.0661 z"
   id="path16" /><path
   style="fill:#233e81;fill-opacity:1;stroke-width:0.307503"
   d="m 339.74587,430.42743 c -1.47527,-1.29025 -5.20764,-5.97605 -8.83858,-11.09637 -17.72134,-24.99049 -31.70567,-60.26745 -34.02988,-85.84397 -0.1998,-2.19865 -0.28008,-5.03537 -0.17841,-6.30382 0.37538,-4.68331 2.66552,-12.02246 6.8275,-21.87996 6.53602,-15.48034 8.16247,-22.87982 10.87178,-49.46075 1.74288,-17.09931 1.84321,-23.16116 0.42358,-25.59189 -0.32061,-0.54897 -1.13008,-1.41544 -1.79882,-1.92551 -1.65899,-1.26536 -7.77295,-3.83416 -9.65656,-4.05725 -1.47523,-0.17471 -1.54878,-0.14723 -1.87049,0.69894 -0.2553,0.67147 -0.21052,1.63901 0.18841,4.07117 1.24809,7.6092 -0.55533,15.20983 -5.60297,23.61394 -8.99954,14.9839 -30.49228,37.96381 -49.15646,52.5578 -4.35403,3.40453 -14.89913,10.41106 -22.82642,15.16668 -24.67892,14.80499 -52.77048,29.53691 -58.51213,30.68524 l -1.00462,0.20093 0.21705,-1.15697 c 1.20305,-6.41282 24.98443,-50.55656 36.86653,-68.43282 7.26862,-10.93542 17.78211,-23.14951 31.76749,-36.906 14.4591,-14.22246 25.23233,-22.85775 33.32605,-26.71248 6.95836,-3.31401 11.72982,-3.97501 20.44895,-2.83286 6.34557,0.83123 6.40025,0.83082 6.13977,-0.0462 -1.45809,-4.90958 -4.80055,-12.92824 -5.89134,-14.13355 -0.41033,-0.45341 -1.00201,-0.54972 -3.37707,-0.54972 -7.213,0 -30.68017,2.16282 -45.30309,4.17531 -12.08534,1.66325 -18.36419,3.40744 -27.00654,7.50211 -10.314,4.8867 -17.24197,6.45773 -28.49777,6.46236 -15.72189,0.006 -33.47957,-4.62252 -52.74312,-13.74883 -18.15801,-8.60256 -45.30289,-26.71968 -44.839883,-29.92718 0.418723,-2.90072 11.762107,-4.28396 35.159883,-4.28747 23.66234,-0.004 48.90969,1.39953 77.49077,4.30644 17.69721,1.79993 28.97013,3.35456 50.23086,6.92723 31.4368,5.28267 39.32528,6.00142 40.38323,3.67947 0.6239,-1.36931 -1.41235,-3.12247 -7.8613,-6.76841 -2.09407,-1.18389 -4.0309,-2.34244 -4.30407,-2.57455 -0.76132,-0.64689 -0.60771,-1.26924 0.31327,-1.26924 2.16317,0 4.7251,-1.51741 4.7251,-2.79864 0,-0.30924 0.26766,-0.7055 0.59479,-0.88058 0.84251,-0.45089 3.54313,-0.38619 5.70902,0.13678 1.01476,0.24503 2.49744,0.45043 3.29484,0.45646 2.45552,0.0185 2.50668,-0.47051 0.81474,-7.7879 -0.50298,-2.17529 -0.85895,-4.01062 -0.79105,-4.07851 0.0679,-0.0679 1.35546,1.36428 2.86126,3.18262 4.72478,5.70548 6.55734,7.09283 10.49291,7.94372 1.85264,0.40055 18.41914,1.27829 18.70632,0.99111 0.0591,-0.0591 -0.36857,-3.21622 -0.95045,-7.01574 -0.58187,-3.79953 -1.05942,-7.7679 -1.06122,-8.8186 -0.007,-4.10168 2.16286,-7.45315 9.41982,-14.54938 6.07914,-5.9445 9.54613,-8.59826 11.23622,-8.60061 1.73553,-0.002 9.05099,6.33864 18.78276,16.28095 12.24673,12.51168 21.44354,23.48599 21.44354,25.588 0,0.85295 -1.27033,3.22413 -2.85878,5.33615 -1.8651,2.47986 -7.18737,7.61564 -10.23026,9.87181 -2.95489,2.19092 -4.83007,3.04586 -7.69086,3.50647 -2.23882,0.36046 -3.17885,0.30878 -11.73762,-0.64526 -7.32799,-0.81685 -6.636,-0.96103 -6.38661,1.33072 0.61746,5.67421 1.76043,13.28292 2.30994,15.37712 1.38553,5.28038 3.21889,7.95953 8.7165,12.73771 2.10559,1.83005 3.78861,3.36999 3.74005,3.42209 -0.0486,0.0521 -2.28276,-0.3377 -4.96487,-0.86622 -2.68212,-0.52851 -5.79513,-1.03964 -6.9178,-1.13582 -1.92109,-0.16459 -2.07037,-0.1304 -2.53651,0.58101 -0.45914,0.70073 -0.45096,0.92256 0.1121,3.03986 1.01022,3.79884 0.7094,6.12777 -0.79149,6.12777 -0.2458,0 -0.59267,0.38053 -0.77083,0.84563 -0.35501,0.92677 -0.4151,4.18134 -0.10035,5.4354 0.11988,0.47763 0.0694,0.79154 -0.1274,0.79154 -0.4009,0 -1.46458,-1.5559 -4.20447,-6.15006 -3.62931,-6.08553 -5.32516,-7.94535 -6.54939,-7.18264 -0.88513,0.55145 -1.25149,2.27904 -1.26951,5.98642 -0.0307,6.31397 0.93024,14.44794 4.31905,36.55907 9.2861,60.58941 10.26404,70.92974 10.62955,112.39237 0.25242,28.63399 -0.38492,43.35354 -2.03909,47.09305 -1.01185,2.28746 -1.57441,2.45086 -3.28555,0.95431 z"
   id="path17" /><path
   style="fill:#233e81;fill-opacity:1;stroke-width:0.307503"
   d="m 340.73268,433.5282 c -5.8472,-3.87302 -20.86934,-26.71712 -30.60153,-46.53558 -5.97903,-12.17559 -8.32005,-19.00381 -11.06772,-32.2819 -2.45774,-11.87701 -3.59439,-22.12468 -3.29789,-29.73265 0.28123,-7.21611 0.5133,-7.95737 5.69519,-18.19094 2.46883,-4.87564 4.5323,-8.73423 4.58549,-8.57467 0.0532,0.15957 -0.89215,2.55739 -2.10076,5.3285 -4.11589,9.43693 -6.95793,18.20318 -7.52245,23.20291 -0.49673,4.39937 1.01228,15.62383 3.38699,25.1934 6.23481,25.12498 18.88267,51.83486 34.11093,72.03578 6.37628,8.45841 8.19093,9.4748 9.53746,5.34195 1.48808,-4.56731 1.86862,-12.81425 1.86068,-40.32361 -0.008,-26.79333 -0.44338,-39.82933 -1.84975,-55.35055 -0.92108,-10.16537 -4.0022,-32.67413 -8.4396,-61.65437 -2.95021,-19.26755 -3.89502,-26.20919 -4.12259,-30.28905 -0.0802,-1.43758 -0.0761,-2.19865 0.009,-1.69127 8.46561,50.3956 11.56812,71.5965 13.76987,94.09594 1.86815,19.09048 2.43412,30.59749 2.43501,49.508 10e-4,23.81535 -1.04968,42.50635 -2.69748,47.98101 -0.43654,1.45035 -1.4291,2.91075 -1.97829,2.91075 -0.13355,0 -0.90428,-0.43814 -1.71274,-0.97365 z"
   id="path18" /><path
   style="fill:#233e81;fill-opacity:1;stroke-width:0.307503"
   d="m 161.12312,354.32042 c 0.98869,-3.94504 16.00497,-34.8195 23.06947,-47.43235 8.70969,-15.55013 17.34447,-28.95319 24.86227,-38.59164 14.3506,-18.39867 38.82113,-41.32968 53.82519,-50.43885 5.79093,-3.51576 11.69973,-5.39024 17.25525,-5.47398 3.76978,-0.0568 5.37895,0.26213 9.1781,1.81921 1.37886,0.56513 2.54723,0.91178 2.59638,0.77035 0.21331,-0.61388 -4.00743,-10.11777 -5.37121,-12.09441 -1.11472,-1.61566 -2.06545,-1.80391 -7.28702,-1.44285 -9.12222,0.63078 -29.75712,2.7483 -43.50508,4.46441 -3.44215,0.42968 -6.31724,0.72245 -6.38908,0.6506 -0.0718,-0.0718 2.12177,-0.49272 4.87469,-0.93527 13.57378,-2.18212 42.895,-4.97832 49.90076,-4.75875 l 3.07503,0.0964 1.4705,2.92128 c 1.51699,3.01365 4.63888,11.36704 4.35447,11.65146 -0.0882,0.0882 -2.05765,-0.0955 -4.37647,-0.40836 -6.59859,-0.89025 -10.15087,-0.94921 -13.65999,-0.22673 -3.60105,0.7414 -8.73693,2.77769 -12.21093,4.84142 -7.46594,4.43514 -19.37808,14.54373 -31.85292,27.03027 -13.31218,13.32467 -23.16317,24.98635 -30.13917,35.67897 -13.07723,20.04446 -35.32661,61.6241 -36.32876,67.8912 l -0.19652,1.22901 1.19929,-0.2196 c 6.91649,-1.26647 45.2682,-21.85567 68.97555,-37.02969 10.36359,-6.63328 17.18569,-12.03217 28.49646,-22.55161 15.1639,-14.103 30.19061,-32.12485 35.33322,-42.37589 1.75593,-3.50018 2.79051,-6.46159 3.53687,-10.12405 0.74935,-3.67711 0.78309,-6.52328 0.12322,-10.39447 -0.65033,-3.81525 -0.3976,-4.53534 1.51608,-4.31964 2.43249,0.27418 11.18498,4.43361 10.58723,5.03135 -0.0746,0.0746 -0.75598,-0.21115 -1.51424,-0.63495 -2.14467,-1.19868 -7.87264,-3.52544 -9.20225,-3.73805 -1.11836,-0.17884 -1.19774,-0.14157 -1.19774,0.56234 0,0.41463 0.35748,1.91986 0.7944,3.34496 4.09055,13.34222 -3.69552,27.43243 -30.90047,55.9196 -19.31724,20.2277 -39.5951,34.69814 -73.52246,52.46624 -14.13942,7.40495 -35.86538,17.66773 -37.40198,17.66773 -0.099,0 -0.0847,-0.38053 0.0319,-0.84563 z"
   id="path19" /><path
   style="fill:#233e81;fill-opacity:1;stroke-width:0.307503"
   d="m 359.5962,261.62574 c -4.53533,-3.17981 -11.50419,-8.74726 -13.94391,-11.13984 -2.25524,-2.21167 -3.81485,-4.64635 -7.38496,-11.52855 -3.77402,-7.27526 -5.12341,-9.43404 -6.32407,-10.11732 -1.00976,-0.57465 -1.04684,-1.0847 -0.0892,-1.22667 0.98202,-0.14558 2.99903,2.3707 6.1373,7.65647 1.54717,2.60589 3.10717,5.00417 3.46667,5.32951 0.97535,0.88268 1.29475,0.3158 0.96468,-1.71219 -0.1534,-0.94257 -0.20058,-2.29785 -0.10482,-3.01174 0.14585,-1.08739 0.36658,-1.41949 1.36044,-2.04689 1.1306,-0.71372 1.18634,-0.82462 1.18634,-2.36042 0,-0.88633 -0.27604,-2.57675 -0.61341,-3.75649 -0.96843,-3.38641 -0.49338,-3.70751 1.04722,-0.70786 0.71955,1.40101 2.12759,3.93106 3.12897,5.62233 l 1.82069,3.07503 6.45648,2.09484 c 8.94302,2.90163 16.84066,5.67302 18.88312,6.62637 l 1.7185,0.80213 -1.38376,0.10707 c -4.12639,0.31926 -22.17195,-4.16643 -28.1262,-6.9915 -1.3587,-0.64465 -2.94722,-1.6751 -3.53006,-2.28988 -0.58284,-0.61479 -1.15656,-1.11779 -1.27494,-1.11779 -0.3003,0 0.88807,5.34276 1.62901,7.32385 0.94127,2.51669 3.58888,5.75817 10.64706,13.0352 8.02087,8.26958 8.87807,9.52392 4.32882,6.33434 z"
   id="path20" /><path
   style="fill:#233e81;fill-opacity:1;stroke-width:0.307503"
   d="m 358.70234,227.83178 c -1.79605,-0.348 -10.60867,-3.15046 -10.2604,-3.26286 0.1466,-0.0473 2.65354,0.37609 5.57098,0.9409 2.91743,0.56481 5.29483,0.94407 5.2831,0.84281 -0.0117,-0.10127 -2.02787,-1.8926 -4.48032,-3.98075 -2.45246,-2.08815 -4.39013,-3.86551 -4.30595,-3.94969 0.0842,-0.0842 2.01495,1.1765 4.29058,2.80152 l 4.13752,2.9546 12.56675,-0.0568 c 8.23509,-0.0372 12.83173,0.0549 13.3355,0.26705 0.72888,0.307 0.68102,0.34916 -0.92251,0.81259 -4.2016,1.21429 -16.97406,2.98494 -21.1526,2.93239 -1.47339,-0.0185 -3.30158,-0.15435 -4.06265,-0.30181 z"
   id="path21" /><path
   style="fill:#233e81;fill-opacity:1;stroke-width:0.307503"
   d="m 345.22501,205.96226 c -0.81198,-5.46482 -1.65626,-12.88689 -1.48535,-13.0578 0.10291,-0.10291 2.23163,0.0409 4.73049,0.31959 11.95078,1.33283 13.63555,1.28168 17.45851,-0.53005 5.67518,-2.6895 15.9062,-13.12206 16.62474,-16.95222 0.23615,-1.25874 -0.44733,-2.62402 -3.03087,-6.05427 -7.55421,-10.02996 -28.609,-31.48023 -35.3368,-36.00055 -0.69223,-0.4651 -1.58923,-0.84563 -1.99333,-0.84563 -1.93071,0 -6.05946,3.1676 -12.26413,9.40912 -4.61054,4.63792 -6.89103,7.41823 -7.92018,9.65607 -0.98219,2.13572 -0.86935,6.7176 0.3441,13.97238 0.53573,3.20296 0.90624,5.89137 0.82336,5.97425 -0.26956,0.26956 -16.85741,-0.5803 -18.44,-0.94475 l -1.53752,-0.35407 1.38377,-0.28795 c 2.69322,-0.56044 10.62118,-0.36521 14.27452,0.35152 1.84698,0.36234 3.4081,0.60887 3.46914,0.54782 0.061,-0.061 -0.30201,-1.96746 -0.80679,-4.23649 -1.68748,-7.58542 -1.8794,-11.59773 -0.74754,-15.62846 0.97851,-3.4846 2.83581,-6.20404 5.93235,-8.68609 1.10952,-0.88934 4.02377,-3.56996 6.4761,-5.95692 5.03255,-4.89839 5.62996,-5.23081 8.90699,-4.95607 3.86971,0.32442 7.25091,2.51861 8.85759,5.74803 0.48341,0.97165 1.08046,1.73352 1.40789,1.79654 1.47984,0.28485 3.66224,-3.53916 4.97638,-8.71967 0.60303,-2.3772 0.7589,-3.76642 0.7589,-6.76364 0,-4.63704 -0.36029,-5.92431 -3.48956,-12.46764 -2.93864,-6.14473 -3.15066,-6.7727 -2.45773,-7.27939 0.29138,-0.21306 0.69251,-0.38738 0.8914,-0.38738 1.11249,0 5.97522,10.09453 7.8445,16.2844 0.63645,2.10749 0.66232,2.47249 0.31973,4.51134 -0.40143,2.38903 -1.95217,7.56809 -4.04649,13.5142 -0.8689,2.46695 -1.24344,3.97028 -1.11582,4.47875 0.11889,0.47368 0.86917,1.22301 1.96867,1.96618 2.77241,1.87392 11.67381,10.94775 13.62939,13.8934 0.92252,1.38958 1.80145,2.53119 1.95317,2.5369 0.15172,0.006 2.50412,-0.9432 5.22755,-2.1087 5.65503,-2.4201 10.333,-3.96562 12.80351,-4.23005 2.7386,-0.29313 8.80577,1.67131 15.41737,4.99185 4.85542,2.43854 6.07895,3.47639 4.86456,4.12632 -0.78696,0.42117 -3.09757,-0.36231 -8.56195,-2.90315 -6.49017,-3.01781 -8.42647,-3.64032 -10.80795,-3.47471 -3.83595,0.26675 -16.00265,4.84016 -16.23505,6.10268 -0.0619,0.33626 0.46578,0.76754 1.64495,1.34445 4.21457,2.062 6.79357,6.01893 6.51724,9.99935 -0.23569,3.39501 -1.18963,4.80513 -5.89559,8.71488 -0.78187,0.64959 -2.23113,2.24452 -3.22057,3.54431 -3.81213,5.00782 -7.48426,7.48415 -12.63249,8.51879 -3.58335,0.72016 -7.25552,0.45241 -12.88912,-0.93977 -2.43458,-0.60163 -4.46866,-1.05172 -4.52018,-1.00019 -0.0515,0.0515 0.0336,3.33359 0.18911,7.29346 0.15554,3.95988 0.23539,7.24719 0.17744,7.30514 -0.0579,0.058 -0.25523,-0.9033 -0.43841,-2.13611 z"
   id="path22" /><path
   style="fill:#233e81;fill-opacity:1;stroke-width:0.307503"
   d="m 292.04362,170.09782 c -0.19091,-0.82708 -1.0503,-3.40319 -1.90975,-5.72469 -2.77384,-7.49252 -2.98312,-9.73192 -1.71101,-18.30917 1.28892,-8.69056 2.42577,-14.14514 2.94816,-14.14514 0.40208,0 0.37963,8.30342 -0.0462,17.0888 l -0.34391,7.09495 3.61099,5.05142 c 1.98604,2.77828 4.08687,5.63952 4.66851,6.35831 0.58164,0.71879 0.94048,1.30689 0.79743,1.30689 -0.4384,0 -3.85644,-3.67139 -6.53154,-7.01566 -1.39546,-1.74454 -2.59597,-3.1131 -2.6678,-3.04127 -0.0718,0.0718 0.36511,2.19106 0.971,4.70939 1.13294,4.70894 1.47728,7.80544 0.89109,8.01311 -0.18141,0.0643 -0.48604,-0.55986 -0.67696,-1.38694 z"
   id="path23" /><path
   style="fill:#233e81;fill-opacity:1;stroke-width:0.307503"
   d="m 287.11126,185.75464 c 0.95071,-1.52234 -0.67483,-2.81422 -8.35686,-6.64153 -5.88569,-2.93235 -9.13295,-4.81642 -11.76077,-6.82362 -2.80801,-2.14484 -8.53263,-9.05731 -12.34674,-14.90867 -3.11858,-4.78432 -2.29305,-4.33176 5.21078,2.8566 9.9573,9.53869 12.81729,11.56771 18.42642,13.0726 2.54661,0.68324 2.58795,-0.0521 0.17362,-3.0886 -1.41314,-1.77729 -2.83454,-5.7668 -4.46477,-12.53147 -2.04508,-8.48605 -3.6648,-17.77605 -3.09927,-17.77605 0.44009,0 2.14404,4.34884 4.95556,12.64762 1.60596,4.74034 3.46052,9.69398 4.12125,11.00809 1.47342,2.93049 3.3074,4.66474 6.83999,6.46801 1.40246,0.71591 2.20398,1.21288 1.78117,1.10438 -0.42282,-0.1085 -1.83585,-0.2798 -3.14007,-0.38066 -2.60135,-0.20118 -3.9325,0.27953 -3.9325,1.42014 0,0.93008 -1.67807,2.11278 -3.30712,2.33085 -2.02394,0.27093 -2.22885,0.36182 -2.22137,0.9854 0.008,0.6719 1.44441,1.70315 5.06723,3.63809 4.48797,2.397 7.84133,4.89536 7.84133,5.84203 0,0.50559 -1.03509,1.36901 -1.64121,1.36901 -0.43292,0 -0.45666,-0.0958 -0.14667,-0.59222 z"
   id="path24" /><path
   style="fill:#233e81;fill-opacity:1;stroke-width:0.307503"
   d="M 180.35055,220.13385 C 155.88754,219.14789 131.18451,209.8222 101.62977,190.4158 87.878397,181.3863 80.258655,174.69214 81.883039,173.06776 c 0.449246,-0.44925 5.421035,-1.70781 9.554826,-2.41872 6.266626,-1.0777 14.034715,-1.30759 36.944665,-1.09337 35.66062,0.33346 49.87425,0.98179 68.72694,3.13488 13.58222,1.55117 22.24125,2.90672 66.72817,10.44614 8.71013,1.47615 18.56512,2.97911 21.67897,3.3062 0.64167,0.0674 0.33125,0.1316 -0.76876,0.15897 -4.52404,0.1126 -19.77509,-2.0721 -43.66544,-6.25504 -26.49634,-4.63922 -65.93684,-8.41253 -101.47601,-9.7083 -10.95968,-0.3996 -35.56818,-0.21389 -40.744161,0.30747 -9.962283,1.00348 -13.940697,2.34559 -13.395241,4.51886 0.756063,3.0124 17.800642,15.04688 34.038142,24.03294 19.76356,10.93743 38.73612,17.43211 55.88107,19.12919 4.12472,0.40828 11.86739,0.40331 15.66219,-0.0101 7.09393,-0.77274 13.82274,-2.70095 19.68481,-5.64088 3.76914,-1.8903 8.41139,-3.87725 9.03721,-3.86806 0.22098,0.003 -0.84361,0.67117 -2.36575,1.48427 -1.52214,0.8131 -3.94372,2.24673 -5.3813,3.18585 -4.85779,3.1734 -8.50711,4.75568 -13.02255,5.64635 -3.11272,0.61398 -12.32427,0.96436 -18.65027,0.70939 z"
   id="path25" /><path
   style="fill:#233e81;fill-opacity:1;stroke-width:0.307503"
   d="M 9.8983741,263.29951 C 9.5164311,253.06816 10.34563,238.95892 12.170922,224.631 14.272612,208.13343 16.36306,198.38087 21.247066,182.28812 29.504459,155.08009 42.025185,130.25713 58.718868,107.99841 66.664527,97.40397 74.133767,88.949465 85.0246,78.222688 97.931104,65.510606 105.27766,59.431092 119.6187,49.594936 154.12541,25.927655 187.30456,13.73705 235.0861,7.1701796 c 6.20333,-0.8525566 6.54154,-0.8662715 21.21771,-0.8604028 18.10376,0.00724 27.51981,0.5812408 40.89791,2.4931322 27.58706,3.942521 53.90954,12.353749 79.18204,25.302265 24.78174,12.697062 41.21277,24.707163 61.20855,44.739755 10.51504,10.534413 16.55243,17.472184 24.81372,28.514251 23.81648,31.83327 39.26547,67.57878 45.89969,106.20171 2.44951,14.2604 3.24084,23.30739 3.44748,39.41405 0.17727,13.81569 0.0855,15.47524 -0.85569,15.47524 -0.55855,0 -0.59634,-0.24735 -0.5992,-3.92066 -0.004,-5.26434 -0.53094,-19.70341 -0.93404,-25.59963 C 505.37482,180.5761 486.41817,135.72959 447.298,92.097171 438.07789,81.813567 424.06172,68.447226 414.05289,60.39338 386.14299,37.934994 355.6928,23.114178 318.72694,13.996024 308.59861,11.497728 299.20098,10.076098 285.82411,9.0186372 277.10233,8.3291684 248.79317,8.227083 240.31365,8.8545225 219.30959,10.408711 209.49889,12.05785 193.29341,16.758427 157.97056,27.00421 128.23044,42.748798 100.54973,65.857448 60.260215,99.492294 31.715019,145.05425 18.927364,196.13767 c -5.424517,21.66956 -8.139156,45.03808 -7.605488,65.47057 l 0.178702,6.84194 h -0.704963 c -0.699237,0 -0.706524,-0.0418 -0.8972409,-5.15067 z"
   id="path26" /><path
   style="fill:#233e81;fill-opacity:1;stroke-width:0.307503"
   d=""
   id="path27" /><path
   style="fill:#233e81;fill-opacity:1;stroke-width:0.307503"
   d="m 11.671044,264.83702 c -0.265945,-4.20535 0.0089,-18.22579 0.483772,-24.67712 C 15.711423,191.84057 32.617771,146.14798 61.021922,108.08733 68.76845,97.707233 74.79583,90.763195 84.393327,81.161544 111.86053,53.682457 143.89927,33.640394 180.1968,21.230987 207.14411,12.018239 225.03434,9.1081869 257.22632,8.7012506 c 25.90797,-0.3275007 43.79509,1.2756324 60.87119,5.4555814 42.17491,10.323725 76.41882,28.335059 107.33299,56.454124 4.64644,4.226338 16.33463,15.892002 20.44936,20.409954 36.57091,40.1548 55.95298,82.11122 61.93521,134.07134 1.20849,10.49655 2.17128,27.73661 2.17669,38.97602 l 0.002,4.38191 h -18.0658 -18.06581 l -0.0316,-10.37822 c -0.0828,-27.21871 -3.33404,-48.40986 -10.86267,-70.80259 -8.68272,-25.8253 -21.17958,-47.2023 -40.44616,-69.18668 C 418.19306,113.14343 406.13965,101.06675 400.9839,96.503315 364.05221,63.814437 324.76221,47.55833 275.44673,44.562681 266.63074,44.027156 245.93336,44.360452 237.85363,45.168054 202.07028,48.744742 172.56576,59.07096 144.4015,77.875145 121.31038,93.292199 98.803318,115.73558 82.803484,139.29889 58.851365,174.57371 46.960375,215.78309 47.910341,260.22448 l 0.175831,8.2257 H 29.992855 11.899538 Z"
   id="path28" /><path
   style="fill:#233e81;fill-opacity:1;stroke-width:0.307503"
   d="m 374.072,76.766248 c -2.54192,-1.719971 -10.74296,-6.366249 -16.13842,-9.143184 -16.30666,-8.392703 -33.32353,-14.486126 -51.81427,-18.553721 -2.62146,-0.57667 -4.47654,-1.059825 -4.12239,-1.073677 0.96984,-0.03793 9.01097,1.638137 14.53239,3.029093 19.38205,4.882718 38.31482,13.044447 55.47254,23.913648 1.98723,1.258892 3.61316,2.348176 3.61316,2.420631 0,0.296104 -0.53057,0.09227 -1.54301,-0.59279 z"
   id="path29" /><path
   style="fill:#233e81;fill-opacity:1;stroke-width:0.307503"
   d="m 130.21734,88.726937 c 0.71345,-0.859652 9.95769,-7.640725 14.88415,-10.918197 20.18118,-13.426143 42.06636,-22.825116 65.18148,-27.993324 6.31132,-1.41112 5.97931,-1.064134 -0.56587,0.5914 -27.98129,7.077562 -53.1473,19.003556 -75.58458,35.819002 -3.85065,2.88584 -4.66759,3.407728 -3.91518,2.501119 z"
   id="path30" /><path
   style="fill:#233e81;fill-opacity:1;stroke-width:0.307503"
   d="m 352.5779,489.73276 c 0.0705,-0.0658 2.01661,-0.89115 4.32476,-1.83411 19.56959,-7.9949 40.20665,-20.43713 58.22649,-35.10515 21.76791,-17.71892 40.71686,-38.24363 54.7873,-59.34331 17.73266,-26.59146 29.11068,-54.97627 36.23912,-90.40591 2.47124,-12.28252 3.48859,-20.0227 4.01144,-30.51968 0.18516,-3.71755 0.2538,-4.07442 0.78365,-4.07442 0.70243,0 0.72997,0.71663 0.26052,6.78048 -1.70045,21.96454 -6.14392,44.01488 -12.76199,63.33023 -14.52324,42.38715 -38.74128,78.35909 -72.55743,107.77219 -16.28964,14.16864 -33.59204,25.73797 -53.04428,35.46833 -11.20874,5.60681 -16.94992,8.05099 -18.91111,8.05099 -0.81763,0 -1.42894,-0.0538 -1.35847,-0.11964 z"
   id="path31" /><path
   style="fill:#233e81;fill-opacity:1;stroke-width:0.307503"
   d="m 299.55636,466.33795 c 51.32507,-9.91761 95.7847,-36.65808 127.98791,-76.97897 21.66777,-27.12971 35.92194,-58.44933 42.92221,-94.30978 0.55327,-2.83426 0.72903,-3.4159 0.60396,-1.99877 -0.25316,2.86869 -2.07764,11.96694 -3.51484,17.52768 -11.0638,42.8074 -36.02517,81.90067 -70.8974,111.03599 -27.78905,23.21742 -63.31281,39.83287 -96.60699,45.18577 -5.96522,0.95906 -6.28823,0.65754 -0.49485,-0.46192 z"
   id="path32" /><path
   style="fill:#233e81;fill-opacity:1;stroke-width:0.307503"
   d="m 250.46126,507.81068 c -0.76108,-0.0629 -3.39023,-0.26193 -5.84256,-0.44236 -9.42316,-0.69332 -24.17965,-2.56234 -32.79834,-4.15416 -5.74303,-1.06069 -17.04621,-3.97085 -24.89396,-6.40929 C 148.43834,484.84596 116.72975,466.39558 88.896458,439.76385 75.825037,427.25672 63.632552,412.95945 53.465517,398.21648 30.082589,364.30946 15.215166,323.90068 11.095252,283.05658 10.717043,279.30709 9.99385,269.90221 9.99385,268.73323 c 0,-0.15568 0.345941,-0.28305 0.768758,-0.28305 0.633461,0 0.768889,0.14883 0.769504,0.84564 0.0012,1.41514 0.589463,8.87557 1.08496,13.76076 1.776697,17.51678 6.114413,37.23155 11.839586,53.81052 14.983912,43.39045 45.673268,87.25559 80.555642,115.1404 29.04254,23.21647 73.02092,43.42003 110.811,50.9063 12.02998,2.38316 17.85676,2.77361 41.40302,2.7744 18.19773,6e-4 22.0623,-0.14608 33.05658,-1.2547 19.77815,-1.99435 39.69899,-6.45662 56.87202,-12.73934 3.64373,-1.33305 5.44536,-1.83807 6.52266,-1.8284 l 1.48847,0.0134 -2.61377,1.07045 c -15.78435,6.46432 -35.90389,11.74142 -55.60943,14.58565 -12.41532,1.79198 -18.06882,2.19548 -32.1827,2.29693 -7.10332,0.0511 -13.53782,0.0414 -14.29889,-0.0215 z"
   id="path33" /><path
   style="fill:#233e81;fill-opacity:1;stroke-width:0.307503"
   d=""
   id="path34" /><path
   style="fill:#233e81;fill-opacity:1;stroke-width:0.307503"
   d="m 230.16605,468.13133 c -16.35133,-1.70971 -35.30733,-7.0702 -54.27429,-15.34801 -4.8965,-2.137 -14.95776,-7.30884 -20.2952,-10.43245 -5.55403,-3.25036 -15.36013,-9.65782 -15.13107,-9.88688 0.0902,-0.0902 1.59436,0.79539 3.34252,1.96804 25.89754,17.37194 58.06659,29.48493 89.12557,33.55948 5.18386,0.68006 3.30638,0.77491 -2.76753,0.13982 z"
   id="path35" /><path
   style="fill:#233e81;fill-opacity:1;stroke-width:0.307503"
   d="m 311.06364,278.89194 c -0.0134,-0.43016 0.24577,-3.40525 0.57583,-6.61132 0.86771,-8.42864 2.6974,-28.92304 3.14219,-35.19575 0.40154,-5.6628 0.81713,-5.81301 0.85078,-0.3075 0.0273,4.46641 -2.04768,26.01408 -3.53857,36.74662 -0.79109,5.69483 -0.98821,6.72189 -1.03023,5.36795 z"
   id="path36" /><path
   style="fill:#233e81;fill-opacity:1;stroke-width:0.307503"
   d=""
   id="path37" /><path
   style="fill:#233e81;fill-opacity:1;stroke-width:0.307503"
   d=""
   id="path38" /><path
   style="fill:#233e81;fill-opacity:1;stroke-width:0.307503"
   d="M 97.248822,393.3917 C 80.445426,373.90848 66.968717,350.07195 58.946583,325.64576 56.52624,318.27618 53.62988,307.672 53.681151,306.36793 c 0.01203,-0.30587 0.641266,1.78273 1.398312,4.64132 6.498134,24.53685 17.771518,48.51475 32.48336,69.09042 3.478229,4.86458 8.05834,10.75801 10.923576,14.05584 0.924807,1.06444 1.610051,2.00676 1.522761,2.09404 -0.08728,0.0873 -1.329437,-1.19874 -2.760338,-2.85785 z"
   id="path39" /><path
   style="fill:#233e81;fill-opacity:1;stroke-width:0.0384379"
   d="m 61.289207,180.89473 c 0,-0.0178 0.24855,-0.67078 0.552333,-1.45103 2.925857,-7.51489 6.25199,-14.73203 10.086873,-21.88681 4.870193,-9.08637 10.466441,-17.84181 16.89686,-26.43549 l 1.042501,-1.39321 0.510706,-1.7e-4 0.510707,-1.6e-4 -0.282613,0.37477 c -2.327849,3.08692 -5.858378,8.18925 -8.318176,12.02145 -4.4404,6.91783 -8.083318,13.32567 -11.767471,20.6988 -2.296853,4.59671 -4.069723,8.46323 -5.986146,13.0554 -0.532824,1.27676 -1.735058,4.26424 -1.958301,4.86626 l -0.0677,0.18258 h -0.609784 c -0.335381,0 -0.609784,-0.0146 -0.609784,-0.0324 z"
   id="path40" /><path
   style="fill:#233e81;fill-opacity:1;stroke-width:0.0384379"
   d="m 54.506477,202.32855 c 0.05686,-0.26173 0.803941,-3.0579 1.132564,-4.23891 1.555128,-5.58887 3.321469,-10.9994 5.424127,-16.61478 l 0.205099,-0.54774 h 0.606257 c 0.333441,0 0.606257,0.0118 0.606257,0.0262 0,0.0144 -0.175249,0.48575 -0.389442,1.04743 -2.334535,6.12197 -4.49428,12.73989 -6.239858,19.12026 l -0.358978,1.31213 -0.506705,0.0108 -0.506705,0.0108 z"
   id="path41" /><path
   style="fill:#233e81;fill-opacity:1;stroke-width:0.0271797"
   d="m 49.982293,225.58462 c 0.0082,-0.0486 0.09995,-0.68764 0.203897,-1.42014 0.848921,-5.98203 1.962758,-11.93635 3.33024,-17.80269 0.19592,-0.84048 0.521107,-2.1784 0.876566,-3.60648 l 0.07232,-0.29056 0.504214,-0.008 c 0.277318,-0.005 0.508819,-0.006 0.514448,-0.003 0.0056,0.003 -0.0843,0.36394 -0.199847,0.8018 -1.774278,6.72357 -3.354893,14.31758 -4.417066,21.22163 -0.09084,0.59048 -0.171111,1.10112 -0.178371,1.13475 -0.01287,0.0596 -0.02212,0.0612 -0.367251,0.0612 h -0.354049 z"
   id="path42" /><path
   style="fill:#233e81;fill-opacity:1;stroke-width:0.0271797"
   d="m 48.056273,261.84233 c -0.0971,-4.10888 -0.09314,-8.42782 0.01129,-12.3192 0.201037,-7.49125 0.747061,-14.71757 1.658324,-21.947 0.07439,-0.59015 0.135251,-1.08856 0.135251,-1.10757 0,-0.0262 0.08553,-0.0346 0.353336,-0.0346 0.194335,0 0.353336,0.004 0.353336,0.009 0,0.005 -0.04895,0.3497 -0.108773,0.76552 -0.450436,3.13077 -0.935774,7.17867 -1.153572,9.62123 -0.42132,4.72499 -0.639508,10.46479 -0.639542,16.82423 -1.5e-5,2.79944 0.05511,6.55377 0.124604,8.48685 l 0.01783,0.49603 H 48.44171 48.07506 Z"
   id="path43" /><path
   style="fill:#233e81;fill-opacity:1;stroke-width:0.0271797"
   d="m 50.529226,290.82946 c -0.03266,-0.15523 -0.427966,-2.97493 -0.570615,-4.07015 -0.973882,-7.47724 -1.611555,-15.35941 -1.836045,-22.69504 -0.0151,-0.49331 -0.0332,-1.01618 -0.04023,-1.16194 l -0.01278,-0.265 h 0.365788 c 0.296553,0 0.365789,0.007 0.365789,0.0383 0,0.11448 0.08716,2.5103 0.122708,3.37275 0.322888,7.835 0.911868,15.38464 1.699503,21.78452 0.148358,1.20548 0.371727,2.91338 0.393684,3.01015 0.01359,0.0599 0.0089,0.0612 -0.2291,0.0612 H 50.54495 Z"
   id="path44" /><path
   style="fill:#233e81;fill-opacity:1;stroke-width:0.0271797"
   d="m 57.379567,321.2979 c -0.0077,-0.0262 -0.123989,-0.41449 -0.25841,-0.86296 -2.498267,-8.33491 -4.452305,-16.72609 -5.940032,-25.50814 -0.0975,-0.57553 -0.220924,-1.32161 -0.274281,-1.65796 -0.112851,-0.71138 -0.366213,-2.34058 -0.366213,-2.35487 0,-0.005 0.110078,-0.01 0.244618,-0.01 0.142238,0 0.244617,0.0112 0.244617,0.0267 0,0.0478 0.239021,1.65164 0.366649,2.46021 0.266787,1.69019 0.543155,3.20742 0.962944,5.28645 1.298469,6.43075 2.893086,12.79667 4.772633,19.05296 0.35572,1.18406 1.037161,3.38149 1.098391,3.54196 0.0278,0.0729 0.02574,0.0761 -0.04272,0.0679 -0.05742,-0.007 -0.07863,-0.0305 -0.105161,-0.11732 -0.01828,-0.0598 -0.194921,-0.62241 -0.392544,-1.25026 -0.915027,-2.90705 -1.711058,-5.65699 -2.623901,-9.06443 -0.717908,-2.67979 -1.256593,-4.49765 -1.349871,-4.5553 -0.05312,-0.0328 -0.05838,0.0218 -0.02841,0.29486 0.13559,1.2349 1.09973,5.08613 2.505702,10.00894 0.45979,1.6099 1.206787,4.14514 1.359421,4.61376 0.02332,0.0716 0.02048,0.0747 -0.06754,0.0747 -0.06405,0 -0.09613,-0.0144 -0.105893,-0.0476 z"
   id="path45" /><path
   style="fill:#233e81;fill-opacity:1;stroke-width:0.0271797"
   d="m 66.182422,344.79474 c -3.253161,-7.22395 -6.187466,-15.03603 -8.692953,-23.14351 l -0.09449,-0.30577 h 0.09049 c 0.07826,0 0.09426,0.0119 0.118349,0.0883 0.01532,0.0486 0.127186,0.41246 0.248587,0.8086 2.262678,7.38337 5.232744,15.24594 8.447221,22.36209 l 0.297729,0.65911 h -0.101896 -0.101896 z"
   id="path46" /><path
   style="fill:#233e81;fill-opacity:1;stroke-width:0.0271797"
   d="m 67.148313,344.64525 c -3.327319,-7.3254 -6.247928,-14.80222 -8.644874,-22.13106 -0.198009,-0.60543 -0.365748,-1.11607 -0.372754,-1.13475 -0.0081,-0.0215 0.01223,-0.034 0.05547,-0.034 0.06087,0 0.07447,0.0206 0.126385,0.19153 0.261542,0.86107 1.451027,4.3801 2.07586,6.14134 2.023371,5.70332 4.534541,11.90216 6.946806,17.14823 0.106,0.23052 0.192728,0.42316 0.192728,0.42808 0,0.005 -0.02222,0.009 -0.04938,0.009 -0.03805,0 -0.113858,-0.14195 -0.330242,-0.61834 z"
   id="path47" /><path
   style="fill:#233e81;fill-opacity:1;stroke-width:0.0883883"
   d=""
   id="path48" /><path
   style="fill:#233e81;fill-opacity:1;stroke-width:0.0883883"
   d="m 138.99068,431.75185 c -12.73505,-9.11814 -24.45281,-19.38395 -35.23209,-30.8665 -2.25437,-2.40145 -5.622955,-6.16858 -5.678709,-6.35056 -0.01715,-0.056 0.373941,0.3059 0.869094,0.80419 0.495153,0.49829 0.936765,0.90598 0.981359,0.90598 0.133576,0 0.0925,-0.17765 -0.105338,-0.45548 -0.102531,-0.14399 -0.168122,-0.2801 -0.145758,-0.30246 0.02236,-0.0224 0.572972,0.5666 1.223572,1.30881 8.59758,9.80817 17.68378,18.50033 27.53721,26.34301 3.64783,2.90344 8.59784,6.56755 12.08045,8.94223 0.76847,0.52399 1.38065,0.96928 1.3604,0.98953 -0.0202,0.0202 -0.27897,-0.10007 -0.57495,-0.26737 -1.00295,-0.5669 -1.22409,-0.5014 -0.41489,0.1229 0.48025,0.37051 0.54941,0.44311 0.41984,0.44071 -0.0365,-6.7e-4 -1.08055,-0.72742 -2.32019,-1.61499 z"
   id="path49" /></svg>
