<?xml version="1.0" encoding="UTF-8" standalone="no"?>
<!-- Generator: Adobe Illustrator 21.0.0, SVG Export Plug-In . SVG Version: 6.00 Build 0)  -->

<svg
   version="1.1"
   id="Layer_1"
   x="0px"
   y="0px"
   viewBox="0 0 1731.8573 516.60516"
   xml:space="preserve"
   sodipodi:docname="OWASP_logo_long_blue.svg"
   width="1731.8573"
   height="516.60516"
   inkscape:version="1.3.2 (091e20e, 2023-11-25, custom)"
   xmlns:inkscape="http://www.inkscape.org/namespaces/inkscape"
   xmlns:sodipodi="http://sodipodi.sourceforge.net/DTD/sodipodi-0.dtd"
   xmlns="http://www.w3.org/2000/svg"
   xmlns:svg="http://www.w3.org/2000/svg"><defs
   id="defs8" /><sodipodi:namedview
   id="namedview8"
   pagecolor="#ffffff"
   bordercolor="#000000"
   borderopacity="0.25"
   inkscape:showpageshadow="2"
   inkscape:pageopacity="0.0"
   inkscape:pagecheckerboard="0"
   inkscape:deskcolor="#d1d1d1"
   inkscape:zoom="0.4065"
   inkscape:cx="1000"
   inkscape:cy="1000"
   inkscape:window-width="2560"
   inkscape:window-height="1009"
   inkscape:window-x="-8"
   inkscape:window-y="-8"
   inkscape:window-maximized="1"
   inkscape:current-layer="Layer_1" />
<style
   type="text/css"
   id="style1">
	.st0{fill:#253E8E;}
</style>
<g
   id="g8"
   transform="translate(-135.30135,-742.92743)">
	<path
   class="st0"
   d="m 739.5,1108.7 c -13.6,-7.2 -24.2,-17.3 -31.6,-30.5 -7.4,-13.2 -11.1,-28.3 -11.1,-45.5 v -80.4 c 0,-16.9 3.8,-31.9 11.3,-45 7.5,-13 18,-23.2 31.6,-30.3 13.5,-7.2 29.1,-10.8 46.7,-10.8 17.9,0 33.6,3.6 47.1,10.8 13.5,7.2 24,17.3 31.6,30.3 7.5,13.1 11.3,28 11.3,45 v 80.4 c 0,17.2 -3.8,32.3 -11.3,45.5 -7.5,13.2 -18,23.3 -31.6,30.5 -13.5,7.2 -29.2,10.8 -47.1,10.8 -17.7,-0.1 -33.3,-3.7 -46.9,-10.8 m 82.5,-38.3 c 8.9,-9.2 13.4,-21.3 13.4,-36.3 v -82.2 c 0,-15.3 -4.5,-27.5 -13.4,-36.7 -8.9,-9.2 -20.8,-13.8 -35.6,-13.8 -14.6,0 -26.3,4.6 -35.3,13.8 -8.9,9.2 -13.4,21.4 -13.4,36.7 v 82.2 c 0,15 4.5,27.2 13.4,36.3 8.9,9.2 20.7,13.8 35.3,13.8 14.8,0 26.7,-4.6 35.6,-13.8"
   id="path1" />
	<path
   class="st0"
   d="M 965.2,1112.4 901,873.6 l -0.4,-1.4 c 0,-2.1 1.3,-3.2 3.9,-3.2 h 34.6 c 2.6,0 4.2,1.2 4.9,3.5 l 40.2,160.8 c 0.2,0.7 0.6,1.1 1.1,1.1 0.5,0 0.8,-0.4 1.1,-1.1 l 38.4,-160.8 c 0.7,-2.3 2.2,-3.5 4.6,-3.5 h 33.9 c 2.6,0 4.2,1.2 4.9,3.5 l 40.9,161.2 c 0.2,0.7 0.6,1.1 1.1,1.1 0.5,0 0.8,-0.4 1.1,-1.1 l 39.5,-161.2 c 0.7,-2.3 2.4,-3.5 4.9,-3.5 h 32.8 c 3.3,0 4.6,1.5 3.9,4.6 l -61,238.7 c -0.7,2.4 -2.3,3.5 -4.9,3.5 h -32.8 c -2.6,0 -4.2,-1.2 -4.9,-3.5 l -41.3,-168.2 c -0.2,-0.7 -0.6,-1.1 -1.1,-1.2 -0.5,-0.1 -0.8,0.3 -1.1,1.2 l -39.5,168.2 c -0.7,2.4 -2.2,3.5 -4.6,3.5 h -31 c -2.7,0.1 -4.3,-1.1 -5,-3.4"
   id="path2" />
	<path
   class="st0"
   d="m 1341.1,1112.4 -11.6,-37.7 c -0.5,-0.9 -1.1,-1.4 -1.8,-1.4 h -93.1 c -0.7,0 -1.3,0.5 -1.8,1.4 l -11.6,37.7 c -0.7,2.4 -2.2,3.5 -4.6,3.5 h -35.3 c -1.4,0 -2.5,-0.4 -3.2,-1.2 -0.7,-0.8 -0.8,-2.1 -0.3,-3.7 l 76.5,-238.4 c 0.7,-2.3 2.2,-3.5 4.6,-3.5 h 44.1 c 2.4,0 3.9,1.2 4.6,3.5 l 76.9,238.4 c 0.2,0.5 0.3,1.1 0.3,1.8 0,2.1 -1.3,3.2 -3.9,3.2 h -35.3 c -2.3,-0.1 -3.8,-1.3 -4.5,-3.6 m -96,-71.3 h 71.6 c 1.4,0 1.9,-0.7 1.4,-2.1 l -36.3,-118.1 c -0.2,-0.9 -0.6,-1.4 -1.1,-1.4 -0.5,0 -0.8,0.5 -1.1,1.4 l -36,118.1 c -0.1,1.4 0.4,2.1 1.5,2.1"
   id="path3" />
	<path
   class="st0"
   d="m 1438.4,1109.9 c -13.6,-5.9 -24.2,-14.1 -31.6,-24.7 -7.4,-10.6 -11.1,-23 -11.1,-37.4 v -8.8 c 0,-1.2 0.4,-2.2 1.2,-3 0.8,-0.8 1.8,-1.2 3,-1.2 h 31.4 c 1.2,0 2.2,0.4 3,1.2 0.8,0.8 1.2,1.8 1.2,3 v 6.7 c 0,10.8 4.8,19.8 14.5,27 9.6,7.2 22.8,10.8 39.5,10.8 14.3,0 25.2,-3.1 32.4,-9.2 7.3,-6.1 10.9,-14 10.9,-23.6 0,-6.6 -2,-12.2 -6,-16.7 -4,-4.6 -9.7,-8.8 -17.1,-12.5 -7.4,-3.8 -18.5,-8.5 -33.3,-14.1 -16.7,-6.1 -30.2,-11.9 -40.6,-17.3 -10.3,-5.4 -19,-12.7 -25.9,-22 -6.9,-9.3 -10.4,-20.9 -10.4,-34.7 0,-20.7 7.5,-37 22.6,-49 15,-12 35.1,-18 60.3,-18 17.6,0 33.2,3.1 46.7,9.2 13.5,6.1 24,14.6 31.6,25.6 7.5,10.9 11.3,23.6 11.3,37.9 v 6 c 0,1.2 -0.4,2.2 -1.2,3 -0.8,0.8 -1.8,1.2 -3,1.2 h -31.7 c -1.2,0 -2.2,-0.4 -3,-1.2 -0.8,-0.8 -1.2,-1.8 -1.2,-3 V 941 c 0,-11 -4.5,-20.4 -13.6,-28 -9.1,-7.6 -21.6,-11.5 -37.6,-11.5 -12.9,0 -23,2.7 -30.2,8.1 -7.2,5.4 -10.7,13 -10.7,22.9 0,7.1 1.9,12.8 5.6,17.3 3.8,4.5 9.4,8.5 16.9,12.2 7.5,3.6 19.2,8.3 34.9,13.9 16.7,6.3 30,12.1 40,17.3 10,5.2 18.6,12.4 25.7,21.7 7.2,9.3 10.8,20.9 10.8,34.7 0,21.2 -7.8,38 -23.5,50.4 -15.6,12.5 -37,18.7 -64,18.7 -18.2,0 -34.2,-2.9 -47.8,-8.8"
   id="path4" />
	<path
   class="st0"
   d="m 1753.3,877.9 c 11.3,6.1 20,14.8 26.3,25.9 6.2,11.2 9.3,24 9.3,38.6 0,14.3 -3.2,27 -9.5,38.1 -6.4,11.1 -15.3,19.6 -27,25.6 -11.6,6 -25.1,9 -40.4,9 h -56.4 c -1.2,0 -1.8,0.6 -1.8,1.8 v 94.9 c 0,1.2 -0.4,2.2 -1.2,3 -0.8,0.8 -1.8,1.2 -3,1.2 h -32.4 c -1.2,0 -2.2,-0.4 -3,-1.2 -0.8,-0.8 -1.2,-1.8 -1.2,-3 V 872.9 c 0,-1.2 0.4,-2.2 1.2,-3 0.8,-0.8 1.8,-1.2 3,-1.2 h 97 c 14.8,0 27.8,3.1 39.1,9.2 m -16.2,93.4 c 7.3,-7.1 10.9,-16.3 10.9,-27.9 0,-11.8 -3.6,-21.3 -10.9,-28.6 -7.3,-7.3 -16.9,-10.9 -28.9,-10.9 h -52.5 c -1.2,0 -1.8,0.6 -1.8,1.8 v 74.4 c 0,1.2 0.6,1.8 1.8,1.8 h 52.5 c 11.9,0 21.6,-3.5 28.9,-10.6"
   id="path5" />
	<path
   class="st0"
   d="m 1842.6,868.7 c 4.6,2.6 8.2,6.1 10.8,10.5 2.6,4.4 3.9,9.3 3.9,14.8 0,5.6 -1.3,10.7 -3.9,15.3 -2.6,4.6 -6.2,8.1 -10.8,10.8 -4.6,2.6 -9.7,3.9 -15.2,3.9 -5.5,0 -10.6,-1.3 -15.1,-3.9 -4.6,-2.6 -8.1,-6.2 -10.8,-10.8 -2.6,-4.6 -3.9,-9.7 -3.9,-15.3 0,-5.4 1.3,-10.4 3.9,-14.8 2.6,-4.4 6.2,-7.9 10.8,-10.5 4.6,-2.6 9.6,-3.9 15.1,-3.9 5.5,0 10.6,1.3 15.2,3.9 m -3.8,44.7 c 3.4,-1.9 6.1,-4.6 8,-8 1.9,-3.4 2.9,-7.3 2.9,-11.5 0,-4 -1,-7.6 -3,-10.9 -2,-3.3 -4.7,-5.9 -8,-7.9 -3.4,-1.9 -7.1,-2.9 -11.3,-2.9 -4.1,0 -7.8,1 -11.2,2.9 -3.4,1.9 -6.1,4.6 -8,7.9 -1.9,3.3 -2.9,7 -2.9,10.9 0,4.3 1,8.1 2.9,11.5 1.9,3.4 4.6,6.1 7.9,8 3.4,1.9 7.1,2.9 11.3,2.9 4.2,0 7.9,-0.9 11.4,-2.9 m -4.9,-17.4 c -0.4,0.1 -0.5,0.4 -0.3,0.9 l 3.3,8.8 c 0.1,0.2 0.1,0.4 0.1,0.7 0,0.9 -0.5,1.3 -1.6,1.3 h -2.8 c -1,0 -1.6,-0.5 -1.9,-1.5 l -3.1,-8.6 c -0.2,-0.4 -0.4,-0.6 -0.7,-0.6 h -0.9 c -0.5,0 -0.7,0.2 -0.7,0.7 v 8.2 c 0,0.5 -0.2,0.9 -0.5,1.3 -0.3,0.3 -0.8,0.5 -1.3,0.5 h -2.5 c -0.5,0 -0.9,-0.2 -1.3,-0.5 -0.3,-0.3 -0.5,-0.8 -0.5,-1.3 v -23.6 c 0,-0.5 0.2,-0.9 0.5,-1.3 0.3,-0.3 0.8,-0.5 1.3,-0.5 h 8.3 c 2.5,0 4.5,0.8 6.1,2.4 1.6,1.6 2.4,3.6 2.4,6 -0.2,3.2 -1.4,5.5 -3.9,7.1 m -8.7,-9.5 v 5.2 c 0,0.5 0.2,0.7 0.7,0.7 h 2.4 c 1,0 1.8,-0.3 2.4,-1 0.6,-0.6 0.9,-1.4 0.9,-2.3 0,-1 -0.3,-1.8 -0.9,-2.4 -0.6,-0.6 -1.4,-1 -2.4,-1 h -2.4 c -0.5,0 -0.7,0.3 -0.7,0.8"
   id="path6" />
	<path
   class="st0"
   d="m 372.7,749.4 c -47.2,5.5 -82.9,17.9 -116.6,40.4 -17,11.3 -26.6,19.3 -41.4,34.1 -30,30.2 -50.2,64.4 -62,105.3 -4.5,15.7 -6.1,23.4 -8.4,42.6 -5.8,47.6 2.5,95.6 24.2,139.6 11.7,23.7 28.5,46.8 48.2,66.7 31,31.1 65.8,51.3 110,63.9 13.1,3.7 21.7,5.4 39.6,7.4 26.4,3.1 49.7,2.2 76.9,-3 72.8,-14 138.7,-63.2 172.9,-129 14.6,-28.2 23.3,-56.3 27,-87.8 9.4,-78.8 -17.4,-154.2 -74.5,-210.1 -19.8,-19.4 -37.7,-32 -62.5,-44.3 -25.9,-12.9 -53.6,-21.1 -82.5,-24.5 -15.1,-1.8 -41.2,-2.5 -50.9,-1.3 m 49.9,39.9 c 35.6,4.9 68,18 97.7,39.7 12.7,9.4 34.3,30.9 43.9,43.7 22.5,30.4 35.9,64 40.9,101.9 1.7,13.3 1.5,40.2 -0.5,54.3 -13.6,96.2 -89.7,170.7 -186.4,182.4 -10.8,1.3 -36.7,1.3 -48.7,-0.1 -46.2,-5.1 -91.3,-26.8 -124.9,-60 -31,-30.7 -51.7,-69.4 -59.8,-111.7 -3.1,-16.5 -4.3,-46.6 -2.3,-63 2.8,-24.8 9.7,-48.2 20.6,-70.2 41.1,-82.8 128.6,-129.5 219.5,-117"
   id="path7" />
	<path
   class="st0"
   d="m 484.4,847.1 c -0.3,0.4 1.1,3.7 3,7.5 3,5.9 3.6,7.8 3.5,12.8 -0.1,8.1 -5.2,18.3 -6.7,13.5 -1.2,-3.6 -5.2,-6.3 -9.5,-6.5 -3.6,-0.1 -4.5,0.4 -7.6,3.9 -2,2.2 -5.2,5.1 -7.2,6.7 -6.6,4.8 -8.5,11.7 -6.3,22.3 l 1.5,6.7 -4.1,-0.7 c -4.5,-0.9 -8.2,-0.9 -13.3,-0.3 -3.2,0.5 -3.5,0.2 -8.5,-6.8 l -5.2,-7.3 0.6,-13.2 c 0.6,-15.1 -0.5,-15.4 -2.9,-0.7 -2.1,12.7 -2,14.6 1.3,22.9 1.6,3.9 2.3,7.1 1.9,7.1 -0.6,0 -3.1,-1.2 -5.8,-2.5 -5.3,-2.9 -6.1,-4.2 -10.7,-18.5 -5.5,-17 -6.6,-14.4 -2.1,5.2 1.9,8.1 3.4,12.7 4.8,14.2 3.2,3.4 2.6,3.8 -2.9,1.7 -3.8,-1.5 -7.2,-4.1 -13.7,-10.5 -4.7,-4.7 -8.8,-8.3 -9.1,-8 -0.8,0.9 8.7,13.8 13.1,17.8 2.2,2.1 8,5.5 12.8,7.7 8.1,3.7 10.3,5.7 7.8,7.1 -0.5,0.3 -13.6,-1.7 -29,-4.4 C 329.9,914.3 316.7,913 270,912.4 c -30.6,-0.4 -38.7,-0.2 -45.9,1 -4.8,0.9 -9.1,2 -9.6,2.4 -1.8,1.8 5.6,8.4 19.9,17.8 31.1,20.4 57,29.7 83.5,29.8 14.7,0 19.2,-1.2 28.3,-7.3 3.2,-2.2 8,-4.6 10.8,-5.4 4.4,-1.3 52,-6.4 59.2,-6.4 2.3,0 3,0.8 5.7,6.8 1.7,3.7 2.9,6.8 2.7,6.8 -0.1,0 -2,-0.7 -4,-1.6 -5.4,-2.2 -13.2,-1.5 -20.9,2.1 -8.6,4 -24.4,16.7 -39.2,31.6 -17.5,17.5 -28.9,33.3 -44.4,61.1 -8.3,14.9 -23.4,46.5 -22.6,47.2 0.9,0.9 36.4,-16.3 52,-25.3 25.9,-14.8 42,-26.7 58.1,-43.4 28.5,-29.5 36.9,-44.6 32.2,-58 -0.6,-1.8 -0.9,-3.3 -0.7,-3.5 0.3,-0.3 3.1,0.7 6.5,2.2 5.2,2.2 6.1,2.9 6.1,5.1 0.1,4.7 -4.1,49.4 -5.1,54.7 -0.5,2.8 -2.5,8.1 -4.4,11.7 -9.8,18.5 -9.3,17.2 -9.8,26.3 -0.6,9.8 2.7,30.4 7.1,44.6 7,22.4 36.2,68.9 40.6,64.5 2.1,-2.1 2.9,-9 3.7,-29.1 1.8,-44.9 -1.6,-81.6 -13.7,-151.9 -2.2,-12.5 -3.6,-23.2 -3.3,-23.8 1.5,-2.2 3.3,-0.2 8,9.3 4.6,9.2 5.7,10.7 12.2,15.9 14.6,11.8 16.7,11.7 4.6,-0.2 -8.3,-8.3 -10,-10.7 -11.1,-16.1 l -0.7,-3.4 2.4,2.3 c 3.4,3.1 32,10.2 32,7.9 0,-0.5 -6.1,-2.8 -13.4,-5.2 L 483.3,978.6 480,973 c -1.8,-3 -3.1,-5.8 -2.8,-6 0.3,-0.3 3.7,0.6 7.6,2 8.4,2.8 10,2.9 23,1 14.9,-2.2 14.1,-3.5 -2,-3.2 l -13.7,0.3 -6.6,-4.7 -6.5,-4.6 -0.4,-10.6 c -0.2,-5.8 -0.4,-10.6 -0.3,-10.7 0,0 2.6,0.6 5.9,1.5 10.3,2.6 18.7,-0.1 23.8,-7.6 1.3,-1.9 3.3,-4 4.5,-4.8 6.2,-3.7 6.8,-11.6 1.5,-16.1 -1.7,-1.4 -3.4,-2.5 -3.9,-2.5 -0.5,0 -0.9,-0.3 -0.9,-0.8 0,-1.1 13.8,-6.1 16.9,-6.1 1.5,0 5.8,1.6 9.5,3.4 6.9,3.5 9.8,4.2 9.8,2.4 0,-1.9 -15.7,-8.8 -19.9,-8.8 -2.2,0 -7.1,1.5 -11.5,3.3 l -7.6,3.3 -2.1,-3.1 c -2.1,-3.4 -11.1,-12.2 -14.1,-14 -1.8,-1 -1.8,-1.4 1.3,-9.5 1.7,-4.7 3,-10 3,-11.7 0,-3.2 -7.1,-19.2 -8.6,-19.2 -0.5,0.3 -1.1,0.6 -1.5,0.9"
   id="path8" />
</g>
</svg>
